<?xml version="1.0" encoding="UTF-8" standalone="no"?>
<svg
   id="svg"
   version="1.1"
   width="400"
   height="400"
   viewBox="0, 0, 400,400"
   sodipodi:docname="logo-white.svg"
   inkscape:version="1.4.2 (ebf0e940d0, 2025-05-08)"
   xmlns:inkscape="http://www.inkscape.org/namespaces/inkscape"
   xmlns:sodipodi="http://sodipodi.sourceforge.net/DTD/sodipodi-0.dtd"
   xmlns="http://www.w3.org/2000/svg"
   xmlns:svg="http://www.w3.org/2000/svg">
  <defs
     id="defs1" />
  <sodipodi:namedview
     id="namedview1"
     pagecolor="#ffffff"
     bordercolor="#000000"
     borderopacity="0.25"
     inkscape:showpageshadow="2"
     inkscape:pageopacity="0.0"
     inkscape:pagecheckerboard="0"
     inkscape:deskcolor="#d1d1d1"
     inkscape:zoom="2.4289617"
     inkscape:cx="168.7964"
     inkscape:cy="207.90776"
     inkscape:window-width="1594"
     inkscape:window-height="962"
     inkscape:window-x="0"
     inkscape:window-y="0"
     inkscape:window-maximized="1"
     inkscape:current-layer="svg" />
  <g
     id="svgg"
     style="stroke:none;stroke-opacity:1;fill:#f2f2f2;fill-opacity:1">
    <path
       id="path0"
       d="M200.608 52.065 C 200.733 52.390,200.613 52.792,200.343 52.959 C 200.063 53.132,199.785 53.065,199.698 52.804 C 199.519 52.267,198.438 52.176,198.438 52.698 C 198.438 52.893,198.042 52.965,197.559 52.859 C 196.872 52.709,196.805 52.755,197.252 53.069 C 197.932 53.546,195.962 54.480,195.030 54.122 C 194.733 54.008,194.598 54.089,194.730 54.302 C 194.861 54.515,194.543 54.851,194.022 55.049 C 193.501 55.247,192.961 55.706,192.822 56.069 C 192.650 56.517,192.267 56.672,191.632 56.551 C 190.919 56.414,190.750 56.512,190.922 56.961 C 191.059 57.318,190.985 57.449,190.732 57.293 C 190.503 57.151,190.228 57.265,190.121 57.545 C 189.920 58.068,186.887 59.189,186.065 59.044 C 185.812 59.000,185.496 59.142,185.361 59.360 C 185.217 59.593,185.366 59.661,185.722 59.524 C 186.186 59.346,186.321 59.553,186.297 60.407 C 186.280 61.021,186.175 61.295,186.063 61.016 C 185.902 60.614,185.661 60.638,184.911 61.130 C 184.389 61.472,183.813 61.659,183.631 61.547 C 183.449 61.434,182.531 61.863,181.591 62.500 C 179.759 63.742,179.081 63.967,179.532 63.184 C 179.695 62.900,179.664 62.832,179.457 63.021 C 179.262 63.200,179.097 63.551,179.092 63.802 C 179.087 64.053,178.793 64.236,178.439 64.209 C 178.061 64.180,177.876 64.369,177.991 64.667 C 178.216 65.254,176.983 66.016,175.807 66.016 C 175.363 66.016,175.000 66.262,175.000 66.563 C 175.000 66.865,174.517 67.314,173.926 67.563 C 172.091 68.335,171.094 68.923,171.094 69.233 C 171.094 69.397,170.786 69.531,170.410 69.531 C 170.034 69.532,168.584 70.253,167.188 71.134 C 165.791 72.015,165.061 72.642,165.566 72.527 C 167.029 72.195,166.121 72.792,164.385 73.305 C 163.516 73.561,162.554 73.674,162.246 73.556 C 161.938 73.438,161.731 73.495,161.786 73.683 C 161.965 74.301,160.808 75.707,160.285 75.506 C 160.003 75.398,159.664 75.591,159.532 75.936 C 159.400 76.281,158.948 76.563,158.529 76.563 C 158.071 76.562,157.873 76.735,158.034 76.995 C 158.213 77.285,158.031 77.342,157.477 77.166 C 156.898 76.982,156.384 77.173,155.744 77.808 C 155.244 78.305,154.318 78.967,153.687 79.279 C 153.056 79.592,152.168 80.171,151.714 80.566 C 151.260 80.962,150.732 81.240,150.542 81.185 C 150.351 81.129,149.823 81.291,149.368 81.544 C 148.913 81.797,148.415 81.878,148.261 81.725 C 148.107 81.571,148.040 81.676,148.112 81.957 C 148.255 82.519,144.325 84.926,143.798 84.600 C 143.619 84.489,143.557 84.877,143.660 85.461 C 143.808 86.295,143.744 86.426,143.363 86.068 C 142.992 85.720,142.603 85.781,141.701 86.329 C 141.053 86.723,140.238 86.956,139.890 86.845 C 139.380 86.684,139.363 86.720,139.803 87.033 C 140.152 87.281,140.241 87.682,140.051 88.144 C 139.872 88.577,139.684 88.683,139.581 88.410 C 139.393 87.911,137.116 88.984,137.112 89.574 C 137.110 89.748,136.978 89.808,136.816 89.709 C 136.655 89.609,136.570 101.827,136.626 116.860 C 136.691 134.147,136.592 144.108,136.356 143.963 C 136.148 143.834,136.016 144.210,136.058 144.815 C 136.127 145.821,136.029 145.897,134.691 145.875 C 133.898 145.862,133.330 145.982,133.428 146.141 C 133.680 146.549,131.983 147.673,131.534 147.395 C 131.161 147.164,129.297 149.060,129.297 149.670 C 129.297 149.852,128.943 150.000,128.510 150.000 C 127.361 150.000,124.967 151.657,125.202 152.290 C 125.335 152.647,125.197 152.744,124.783 152.585 C 124.444 152.455,123.381 152.787,122.421 153.322 C 120.472 154.410,120.139 154.503,120.545 153.846 C 120.719 153.564,120.652 153.501,120.366 153.678 C 120.115 153.833,120.029 154.154,120.175 154.390 C 120.348 154.670,120.206 154.730,119.770 154.563 C 119.402 154.422,119.169 154.436,119.254 154.594 C 119.484 155.026,118.032 156.278,117.778 155.867 C 117.658 155.673,117.030 156.031,116.383 156.663 C 115.737 157.295,114.994 157.816,114.733 157.819 C 114.471 157.823,113.844 158.262,113.338 158.796 C 112.780 159.384,112.619 159.766,112.928 159.766 C 113.308 159.766,113.325 159.878,112.994 160.209 C 112.484 160.719,111.160 159.696,111.640 159.164 C 111.791 158.996,111.691 158.987,111.419 159.144 C 111.147 159.301,111.044 159.622,111.191 159.859 C 111.363 160.138,111.221 160.199,110.786 160.032 C 110.417 159.890,110.201 159.913,110.305 160.082 C 110.676 160.681,108.852 162.109,107.716 162.109 C 107.443 162.109,107.009 162.445,106.753 162.855 C 106.497 163.266,105.766 163.716,105.129 163.856 C 104.493 163.996,103.870 164.374,103.746 164.697 C 103.622 165.020,103.359 165.184,103.162 165.062 C 102.964 164.940,102.448 165.324,102.015 165.916 C 101.307 166.884,101.200 166.920,100.952 166.281 C 100.707 165.648,100.597 165.690,99.950 166.672 C 99.551 167.278,99.223 167.643,99.221 167.484 C 99.220 167.325,98.364 167.720,97.320 168.363 C 96.276 169.006,95.265 169.531,95.074 169.531 C 94.449 169.531,94.097 195.354,94.659 199.902 C 94.916 201.977,94.870 202.344,94.356 202.344 C 94.023 202.344,93.750 202.527,93.750 202.751 C 93.750 202.976,93.530 203.110,93.262 203.051 C 92.647 202.914,90.234 203.902,90.234 204.291 C 90.234 204.450,89.794 204.532,89.256 204.473 C 88.718 204.414,88.364 204.506,88.470 204.677 C 88.772 205.165,87.577 205.972,86.924 205.722 C 86.163 205.430,86.329 206.346,87.109 206.744 C 87.451 206.918,87.254 206.958,86.638 206.839 C 85.835 206.683,85.248 206.927,84.192 207.854 C 83.207 208.719,82.555 209.008,81.949 208.850 C 80.928 208.583,80.040 209.211,80.338 209.989 C 80.456 210.296,80.402 210.560,80.218 210.577 C 79.081 210.678,78.264 210.973,77.376 211.602 C 76.821 211.995,75.884 212.563,75.293 212.865 C 74.702 213.166,74.219 213.659,74.219 213.960 C 74.219 214.314,73.964 214.425,73.493 214.275 C 73.073 214.142,72.558 214.296,72.273 214.640 C 71.680 215.354,70.930 215.438,71.329 214.746 C 71.492 214.462,71.461 214.394,71.254 214.583 C 71.058 214.762,70.898 215.099,70.898 215.332 C 70.898 215.565,70.654 215.837,70.356 215.936 C 69.994 216.057,69.908 215.937,70.097 215.578 C 70.253 215.282,70.057 215.407,69.663 215.856 C 68.719 216.930,66.217 218.411,65.579 218.273 C 65.301 218.213,65.067 218.410,65.057 218.711 C 65.047 219.011,64.688 219.394,64.258 219.562 C 63.828 219.730,63.696 219.879,63.965 219.894 C 64.233 219.910,64.453 220.098,64.453 220.313 C 64.453 220.862,63.143 220.800,62.567 220.223 C 62.187 219.844,62.110 219.941,62.196 220.688 C 62.293 221.534,62.156 221.633,60.877 221.637 C 59.706 221.641,59.475 221.770,59.588 222.357 C 59.666 222.760,59.521 223.031,59.257 222.977 C 58.527 222.830,57.031 223.794,57.031 224.411 C 57.031 224.805,56.638 224.936,55.686 224.861 C 54.946 224.803,54.429 224.897,54.536 225.071 C 54.644 225.245,54.238 225.599,53.635 225.858 C 53.032 226.116,51.612 227.101,50.478 228.047 C 48.784 229.459,48.314 229.681,47.841 229.288 C 47.408 228.928,47.266 228.924,47.266 229.272 C 47.266 229.526,47.102 229.633,46.903 229.510 C 46.704 229.386,46.428 229.640,46.291 230.072 C 46.153 230.505,45.770 230.859,45.440 230.859 C 45.028 230.859,44.920 231.075,45.099 231.543 C 45.293 232.055,45.246 232.115,44.912 231.783 C 44.396 231.272,42.866 231.548,43.202 232.093 C 43.326 232.293,43.148 232.882,42.807 233.402 C 42.087 234.501,41.836 299.219,42.551 299.219 C 42.752 299.219,42.862 299.702,42.797 300.293 C 42.667 301.473,43.115 301.938,44.392 301.947 C 44.852 301.950,45.335 302.229,45.464 302.566 C 45.621 302.974,45.962 303.096,46.484 302.930 C 47.445 302.625,48.054 303.794,47.225 304.353 C 46.806 304.635,46.858 304.694,47.452 304.606 C 47.921 304.537,48.235 304.723,48.251 305.078 C 48.266 305.400,48.489 305.620,48.748 305.566 C 49.007 305.513,49.219 305.619,49.219 305.802 C 49.219 305.986,50.049 306.091,51.064 306.036 C 52.632 305.952,52.808 306.011,52.236 306.429 C 51.371 307.062,51.375 307.396,52.246 307.176 C 52.664 307.071,53.537 307.581,54.493 308.488 C 55.352 309.304,56.333 309.918,56.672 309.853 C 57.510 309.691,59.375 310.433,59.375 310.928 C 59.375 311.148,59.101 311.328,58.766 311.328 C 58.431 311.328,58.263 311.500,58.393 311.711 C 58.542 311.952,58.931 311.916,59.444 311.613 C 60.093 311.230,60.295 311.234,60.437 311.628 C 60.776 312.564,61.776 313.281,62.742 313.281 C 63.455 313.281,63.844 313.601,64.222 314.500 C 64.729 315.707,64.740 315.710,65.312 314.893 C 65.933 314.007,66.406 314.165,66.406 315.258 C 66.406 315.629,66.681 316.037,67.017 316.166 C 67.359 316.298,67.504 316.600,67.347 316.854 C 67.173 317.137,67.237 317.203,67.518 317.029 C 67.766 316.876,67.969 316.947,67.969 317.188 C 67.969 317.428,68.132 317.523,68.332 317.399 C 68.532 317.276,68.802 317.346,68.931 317.555 C 69.060 317.764,69.422 317.836,69.736 317.716 C 70.054 317.594,70.412 317.773,70.545 318.121 C 70.677 318.465,70.956 318.640,71.165 318.511 C 71.589 318.249,73.047 319.650,73.047 320.319 C 73.047 320.556,73.224 320.640,73.440 320.506 C 73.657 320.372,73.932 320.521,74.053 320.835 C 74.202 321.222,74.645 321.349,75.418 321.227 C 76.059 321.126,76.563 321.224,76.563 321.449 C 76.563 321.670,76.826 321.749,77.148 321.626 C 77.525 321.481,77.734 321.634,77.734 322.052 C 77.734 322.410,77.887 322.608,78.073 322.493 C 78.589 322.174,79.807 323.710,79.470 324.254 C 79.302 324.527,79.339 324.629,79.557 324.495 C 79.767 324.365,80.501 324.602,81.189 325.020 C 81.878 325.439,82.719 325.781,83.059 325.781 C 83.405 325.781,83.592 326.004,83.483 326.288 C 83.349 326.637,83.668 326.790,84.515 326.782 C 85.531 326.772,85.737 326.918,85.713 327.627 C 85.697 328.099,85.926 328.577,86.221 328.691 C 86.517 328.804,86.684 328.767,86.593 328.609 C 86.501 328.450,86.567 327.969,86.740 327.539 C 87.040 326.795,87.056 326.799,87.082 327.629 C 87.102 328.254,87.413 328.565,88.184 328.727 C 90.104 329.133,91.222 329.964,91.081 330.881 C 91.000 331.414,91.109 331.629,91.377 331.463 C 91.870 331.159,93.061 332.199,92.669 332.591 C 92.525 332.736,92.702 332.740,93.063 332.602 C 93.803 332.318,96.616 333.594,98.458 335.050 C 99.238 335.665,101.611 335.371,102.184 334.587 C 102.427 334.256,102.826 333.984,103.070 333.984 C 103.315 333.984,103.516 333.721,103.516 333.398 C 103.516 332.890,104.018 332.755,105.668 332.820 C 106.332 332.847,108.185 331.536,107.972 331.192 C 107.805 330.923,107.997 330.865,108.513 331.029 C 109.110 331.219,109.378 331.074,109.574 330.457 C 109.725 329.983,110.058 329.716,110.358 329.831 C 110.645 329.942,111.096 329.772,111.359 329.455 C 111.623 329.137,112.119 328.904,112.462 328.937 C 113.846 329.069,114.090 328.890,113.980 327.832 C 113.884 326.917,114.026 326.739,114.941 326.634 C 115.609 326.557,116.016 326.696,116.016 327.002 C 116.016 327.283,116.241 327.185,116.542 326.773 C 116.884 326.306,117.261 326.164,117.617 326.370 C 117.918 326.545,118.033 326.543,117.873 326.367 C 117.473 325.925,120.218 324.114,120.770 324.456 C 121.033 324.618,121.107 324.557,120.953 324.307 C 120.809 324.075,121.046 323.772,121.479 323.635 C 121.912 323.497,122.266 323.045,122.266 322.630 C 122.266 322.215,122.397 321.862,122.559 321.845 C 122.720 321.829,123.203 321.742,123.633 321.654 C 124.063 321.565,124.810 321.452,125.293 321.403 C 125.776 321.354,126.172 321.100,126.172 320.840 C 126.172 320.579,126.523 320.254,126.953 320.117 C 127.383 319.981,127.734 319.623,127.734 319.322 C 127.734 318.996,127.971 318.865,128.320 318.999 C 128.711 319.149,128.908 318.982,128.912 318.499 C 128.917 317.938,128.995 317.894,129.257 318.309 C 129.534 318.745,129.666 318.720,129.973 318.170 C 130.191 317.781,130.912 317.452,131.679 317.392 C 132.410 317.335,132.976 317.133,132.938 316.945 C 132.808 316.306,134.100 315.234,134.999 315.234 C 135.491 315.234,136.123 314.922,136.404 314.541 C 136.684 314.160,137.305 313.872,137.783 313.901 C 138.261 313.931,138.574 313.829,138.479 313.675 C 138.384 313.521,138.740 313.198,139.270 312.956 C 139.800 312.714,140.234 312.337,140.234 312.118 C 140.234 311.898,140.489 311.719,140.801 311.719 C 141.112 311.719,141.562 311.411,141.800 311.035 C 142.110 310.546,142.291 310.490,142.438 310.840 C 142.782 311.659,143.301 311.383,143.070 310.503 C 142.874 309.751,142.934 309.719,143.740 310.151 C 144.227 310.412,144.515 310.445,144.379 310.226 C 144.078 309.739,146.418 308.507,146.983 308.856 C 147.205 308.993,147.273 308.922,147.135 308.699 C 146.639 307.896,148.885 307.870,149.685 308.669 C 150.106 309.091,150.714 309.334,151.036 309.211 C 151.357 309.088,152.386 309.514,153.322 310.157 C 154.258 310.801,155.212 311.328,155.441 311.328 C 155.671 311.328,155.859 311.516,155.859 311.745 C 155.859 311.992,155.500 312.059,154.980 311.910 C 153.531 311.495,156.231 313.085,157.923 313.644 C 158.726 313.909,159.291 314.273,159.179 314.454 C 158.936 314.848,161.286 316.088,161.741 315.807 C 161.916 315.698,162.495 316.046,163.027 316.578 C 164.154 317.705,165.971 318.282,166.368 317.639 C 166.548 317.349,166.858 317.461,167.299 317.977 C 167.663 318.402,167.793 318.750,167.587 318.750 C 166.830 318.750,167.662 319.844,168.944 320.535 C 169.671 320.926,170.187 321.371,170.093 321.524 C 169.998 321.677,170.256 321.714,170.666 321.607 C 171.423 321.409,173.345 322.933,173.135 323.564 C 173.076 323.741,173.208 323.775,173.428 323.639 C 173.648 323.503,173.831 323.621,173.834 323.903 C 173.839 324.310,173.908 324.306,174.176 323.884 C 174.507 323.361,175.068 323.796,175.238 324.707 C 175.268 324.868,175.318 325.132,175.348 325.293 C 175.378 325.454,175.552 325.350,175.735 325.062 C 176.135 324.430,177.734 325.237,177.734 326.071 C 177.734 326.341,177.866 326.542,178.027 326.516 C 178.985 326.365,179.688 326.642,179.688 327.171 C 179.687 327.506,179.859 327.675,180.068 327.545 C 180.277 327.416,180.748 327.661,181.114 328.088 C 181.480 328.516,181.924 328.777,182.101 328.668 C 182.277 328.559,182.422 328.641,182.422 328.850 C 182.422 329.063,183.111 329.151,183.991 329.050 C 184.853 328.950,185.514 329.010,185.458 329.181 C 185.403 329.352,185.664 329.927,186.038 330.458 C 186.412 330.989,186.719 331.284,186.719 331.114 C 186.719 330.943,186.995 331.080,187.333 331.417 C 187.670 331.755,188.285 332.031,188.700 332.031 C 189.114 332.031,189.453 332.217,189.453 332.445 C 189.453 332.672,189.610 332.762,189.802 332.643 C 190.220 332.384,192.812 333.415,193.160 333.978 C 193.295 334.197,193.131 334.375,192.796 334.375 C 192.462 334.375,192.188 334.551,192.188 334.766 C 192.188 335.108,192.799 335.316,193.066 335.064 C 193.120 335.013,193.808 335.370,194.595 335.856 C 195.383 336.343,196.174 336.715,196.353 336.684 C 197.169 336.540,197.580 336.777,197.769 337.500 C 197.882 337.930,198.281 338.281,198.657 338.281 C 199.299 338.281,199.298 338.235,198.633 337.500 C 198.244 337.070,198.053 336.719,198.210 336.719 C 198.597 336.719,199.663 337.798,200.486 339.024 C 200.860 339.582,201.168 339.819,201.169 339.551 C 201.171 339.282,201.438 339.063,201.763 339.063 C 202.088 339.062,202.660 338.906,203.033 338.714 C 203.406 338.522,204.212 338.167,204.823 337.924 C 205.504 337.653,205.857 337.276,205.733 336.952 C 205.585 336.567,205.867 336.443,206.769 336.497 C 208.189 336.582,209.375 335.997,209.375 335.212 C 209.375 334.862,209.655 334.748,210.180 334.885 C 211.159 335.141,211.623 334.224,210.933 333.393 C 210.352 332.693,210.970 332.611,211.657 333.298 C 211.967 333.607,212.242 333.642,212.419 333.395 C 212.885 332.742,215.189 331.597,215.789 331.720 C 216.100 331.784,216.377 331.660,216.404 331.445 C 216.431 331.230,216.796 330.690,217.215 330.244 C 217.633 329.799,217.855 329.313,217.707 329.165 C 217.559 329.018,218.174 328.955,219.072 329.026 C 220.430 329.133,220.807 329.002,221.300 328.249 C 221.626 327.751,222.162 327.344,222.491 327.344 C 222.820 327.344,223.651 326.817,224.338 326.174 C 225.024 325.530,225.883 325.003,226.246 325.002 C 226.610 325.001,227.023 324.812,227.165 324.583 C 227.307 324.353,227.652 324.253,227.932 324.361 C 228.280 324.494,228.408 324.252,228.336 323.597 C 228.250 322.818,228.368 322.681,228.959 322.868 C 229.544 323.054,229.688 322.897,229.688 322.074 C 229.688 321.478,229.854 321.151,230.084 321.293 C 230.303 321.428,230.380 321.702,230.257 321.902 C 229.904 322.472,230.791 322.328,231.833 321.646 C 232.353 321.305,233.006 321.158,233.284 321.318 C 233.562 321.478,233.672 321.479,233.529 321.319 C 233.158 320.906,234.472 319.631,235.059 319.836 C 235.327 319.929,235.547 319.831,235.547 319.619 C 235.547 319.406,235.921 319.134,236.379 319.014 C 236.935 318.869,237.133 318.594,236.977 318.187 C 236.728 317.538,236.972 317.460,238.925 317.565 C 239.602 317.601,240.288 317.416,240.451 317.154 C 240.651 316.829,240.570 316.767,240.197 316.961 C 239.895 317.117,240.000 316.975,240.430 316.644 C 240.859 316.313,241.447 315.839,241.735 315.589 C 242.023 315.340,242.726 315.133,243.298 315.129 C 243.869 315.125,244.116 315.044,243.848 314.950 C 243.579 314.856,243.362 314.398,243.365 313.932 C 243.370 313.243,243.441 313.194,243.750 313.672 C 243.958 313.994,244.131 314.104,244.135 313.917 C 244.138 313.730,244.438 313.817,244.802 314.112 C 245.165 314.407,245.341 314.446,245.193 314.198 C 244.888 313.689,247.005 312.793,247.513 313.215 C 247.685 313.359,247.634 313.213,247.399 312.891 C 247.164 312.568,247.095 311.965,247.247 311.549 C 247.435 311.032,247.611 310.940,247.807 311.256 C 248.188 311.872,249.283 311.851,249.141 311.230 C 249.079 310.962,249.203 310.709,249.417 310.667 C 249.630 310.626,249.780 310.846,249.750 311.156 C 249.665 312.038,249.982 311.818,250.407 310.698 C 250.694 309.944,250.997 309.731,251.569 309.881 C 251.995 309.992,252.344 309.920,252.344 309.721 C 252.344 309.521,252.790 309.155,253.335 308.906 C 253.881 308.658,254.247 308.247,254.150 307.993 C 253.676 306.758,258.700 309.354,259.480 310.748 C 259.658 311.067,259.982 311.328,260.199 311.328 C 260.416 311.328,260.484 311.152,260.352 310.938 C 260.219 310.723,260.277 310.547,260.482 310.547 C 260.687 310.547,260.940 310.770,261.044 311.043 C 261.320 311.762,266.359 314.211,267.033 313.954 C 267.159 313.906,267.589 314.482,267.990 315.234 C 268.390 315.986,268.725 316.436,268.734 316.234 C 268.743 316.032,268.975 316.174,269.250 316.551 C 269.543 316.951,270.467 317.317,271.474 317.433 C 272.421 317.542,273.518 317.803,273.911 318.013 C 274.304 318.223,274.842 318.274,275.106 318.125 C 275.472 317.918,275.471 317.978,275.098 318.380 C 274.404 319.128,274.479 319.347,275.608 319.861 C 276.172 320.118,276.491 320.502,276.342 320.744 C 276.158 321.042,276.328 321.038,276.906 320.728 C 277.452 320.436,277.734 320.423,277.734 320.689 C 277.734 320.912,277.923 321.094,278.153 321.094 C 278.383 321.094,278.835 321.358,279.158 321.680 C 279.537 322.060,280.094 322.179,280.735 322.018 C 281.681 321.780,281.713 321.827,281.446 323.043 C 281.242 323.971,281.291 324.240,281.623 324.034 C 281.875 323.879,282.386 324.028,282.760 324.367 C 283.134 324.705,283.870 325.030,284.396 325.089 C 284.921 325.147,285.533 325.425,285.754 325.707 C 286.064 326.101,286.413 326.120,287.277 325.792 C 288.262 325.417,288.338 325.438,287.905 325.960 C 287.633 326.287,287.212 326.434,286.967 326.288 C 286.723 326.142,286.765 326.319,287.060 326.683 C 287.354 327.046,287.442 327.344,287.255 327.345 C 287.067 327.346,287.507 327.708,288.232 328.150 C 288.956 328.592,289.785 328.862,290.074 328.751 C 290.364 328.640,290.689 328.694,290.798 328.871 C 290.908 329.048,291.418 329.112,291.932 329.013 C 292.681 328.870,292.916 329.035,293.120 329.847 C 293.260 330.404,293.554 330.859,293.773 330.859 C 293.993 330.859,294.683 331.237,295.307 331.699 C 295.932 332.160,296.935 332.556,297.538 332.577 C 298.380 332.608,298.790 332.933,299.316 333.984 C 299.777 334.908,299.999 335.108,299.999 334.600 C 300.000 333.889,300.050 333.895,300.916 334.708 C 302.109 335.829,304.297 335.764,304.297 334.608 C 304.297 333.845,304.304 333.844,304.857 334.593 C 305.320 335.222,305.504 335.263,305.931 334.835 C 306.356 334.408,306.353 334.341,305.908 334.445 C 305.613 334.514,305.298 334.374,305.210 334.134 C 305.116 333.881,305.709 333.593,306.626 333.446 C 307.493 333.307,308.203 333.059,308.203 332.894 C 308.203 332.451,310.596 331.625,311.055 331.909 C 311.286 332.052,311.327 331.955,311.154 331.675 C 310.966 331.371,311.157 331.119,311.679 330.983 C 312.223 330.841,312.500 330.455,312.500 329.838 C 312.500 328.995,312.644 328.919,314.041 329.030 C 314.888 329.097,315.493 329.008,315.385 328.834 C 315.205 328.543,315.782 328.355,316.504 328.469 C 316.665 328.495,316.797 328.252,316.797 327.930 C 316.797 327.604,317.144 327.344,317.578 327.344 C 318.008 327.344,318.359 327.160,318.359 326.936 C 318.359 326.712,318.579 326.557,318.848 326.592 C 319.892 326.727,320.313 326.538,320.313 325.931 C 320.313 325.492,320.550 325.362,321.094 325.504 C 321.592 325.634,321.782 325.555,321.616 325.288 C 321.446 325.012,321.609 324.964,322.092 325.150 C 322.497 325.305,322.701 325.305,322.546 325.150 C 322.391 324.995,322.555 324.546,322.911 324.153 C 323.588 323.405,324.440 323.154,324.026 323.824 C 323.890 324.045,324.046 324.111,324.392 323.978 C 324.724 323.851,324.898 323.589,324.779 323.397 C 324.661 323.204,324.770 323.047,325.023 323.047 C 325.300 323.047,325.395 322.715,325.263 322.209 C 325.098 321.581,325.155 321.483,325.491 321.819 C 326.079 322.407,326.669 322.391,326.470 321.791 C 326.291 321.255,330.014 319.848,330.653 320.210 C 330.874 320.335,330.926 320.295,330.768 320.121 C 330.369 319.680,331.654 318.777,332.703 318.762 C 333.273 318.754,333.499 318.567,333.364 318.215 C 333.242 317.898,333.486 317.595,333.963 317.471 C 334.447 317.344,334.670 317.417,334.524 317.654 C 334.384 317.879,334.634 317.858,335.109 317.603 C 335.565 317.360,335.938 317.068,335.938 316.955 C 335.937 316.843,335.735 316.876,335.487 317.029 C 335.205 317.203,335.142 317.137,335.318 316.851 C 335.473 316.600,336.247 316.114,337.038 315.771 C 337.870 315.410,338.259 315.066,337.961 314.954 C 337.339 314.721,338.848 313.867,340.539 313.496 C 341.164 313.358,342.399 312.552,343.281 311.704 C 344.672 310.368,344.934 310.248,345.248 310.809 C 345.575 311.392,345.633 311.382,345.849 310.704 C 346.058 310.045,348.618 308.594,349.570 308.594 C 349.761 308.594,350.025 308.312,350.157 307.967 C 350.298 307.598,350.645 307.436,351.000 307.572 C 351.332 307.699,351.522 307.672,351.422 307.511 C 351.014 306.851,352.315 305.763,353.290 305.949 C 353.831 306.053,354.200 306.018,354.110 305.873 C 353.829 305.418,355.513 304.230,356.112 304.460 C 356.425 304.580,356.590 304.531,356.478 304.350 C 356.367 304.169,357.124 303.471,358.162 302.799 C 360.430 301.329,360.847 300.863,361.020 299.600 C 361.093 299.068,361.265 298.455,361.401 298.237 C 361.538 298.020,361.639 285.189,361.625 269.725 C 361.611 254.260,361.463 241.957,361.296 242.386 C 361.006 243.129,360.991 243.126,360.965 242.308 C 360.950 241.837,361.113 241.344,361.328 241.211 C 361.857 240.884,361.831 237.500,361.300 237.500 C 361.041 237.500,360.919 236.684,360.980 235.359 C 361.077 233.275,358.884 229.528,358.054 230.358 C 357.921 230.490,357.813 230.365,357.813 230.078 C 357.813 229.792,357.702 229.667,357.568 229.802 C 357.314 230.056,355.078 229.046,355.078 228.678 C 355.078 228.563,355.281 228.595,355.529 228.748 C 355.817 228.926,355.874 228.855,355.685 228.549 C 355.523 228.287,355.156 228.161,354.871 228.271 C 354.585 228.381,353.638 227.953,352.765 227.321 C 351.893 226.689,350.991 226.172,350.762 226.172 C 350.532 226.172,350.443 226.012,350.563 225.818 C 350.684 225.623,350.447 225.551,350.037 225.658 C 349.591 225.775,348.954 225.517,348.454 225.016 C 347.907 224.469,347.352 224.263,346.855 224.420 C 346.140 224.647,345.851 224.105,346.057 222.920 C 346.088 222.743,345.920 222.718,345.683 222.864 C 345.446 223.010,344.908 222.760,344.486 222.307 C 344.065 221.855,343.439 221.484,343.096 221.484 C 342.753 221.484,342.101 221.085,341.646 220.598 C 341.192 220.110,340.533 219.768,340.181 219.837 C 339.829 219.906,339.214 219.558,338.814 219.063 C 338.413 218.569,337.646 218.103,337.109 218.028 C 336.572 217.954,335.941 217.735,335.706 217.543 C 335.472 217.351,335.164 217.310,335.023 217.451 C 334.881 217.593,334.766 217.415,334.766 217.057 C 334.766 216.673,334.455 216.406,334.007 216.406 C 333.590 216.406,333.139 216.228,333.004 216.009 C 332.869 215.791,332.581 215.722,332.364 215.856 C 332.146 215.991,331.709 215.730,331.392 215.277 C 331.075 214.824,330.402 214.453,329.897 214.453 C 329.172 214.453,329.022 214.289,329.184 213.672 C 329.333 213.099,329.193 212.887,328.659 212.878 C 327.719 212.862,326.489 211.932,326.862 211.520 C 327.019 211.346,326.941 211.322,326.687 211.467 C 326.016 211.852,323.531 210.556,323.309 209.706 C 323.197 209.280,322.893 209.068,322.571 209.191 C 322.270 209.307,321.419 209.000,320.680 208.509 C 317.658 206.501,316.411 206.008,315.964 206.641 C 315.618 207.132,315.587 207.116,315.771 206.543 C 316.132 205.422,315.680 204.858,314.345 204.762 C 313.042 204.668,311.952 203.696,312.378 203.007 C 312.511 202.791,312.436 202.728,312.211 202.867 C 311.985 203.006,311.685 202.819,311.543 202.450 C 311.323 201.876,311.234 201.862,310.922 202.355 C 310.613 202.844,310.558 202.834,310.553 202.283 C 310.549 201.829,310.313 201.697,309.766 201.840 C 309.222 201.982,308.984 201.852,308.984 201.413 C 308.984 201.065,308.765 200.776,308.496 200.769 C 308.194 200.762,308.244 200.619,308.627 200.395 C 309.114 200.111,309.338 198.723,308.991 198.145 C 308.912 198.013,308.916 194.219,308.995 193.848 C 309.384 192.022,308.950 171.679,308.521 171.678 C 308.196 171.677,308.052 171.296,308.129 170.637 C 308.219 169.868,308.040 169.532,307.440 169.342 C 306.994 169.200,306.718 168.941,306.826 168.766 C 306.934 168.591,306.717 168.472,306.343 168.501 C 305.970 168.531,305.706 168.341,305.757 168.080 C 305.811 167.804,305.604 167.700,305.262 167.832 C 304.907 167.968,304.356 167.653,303.868 167.033 C 303.425 166.469,302.901 166.108,302.703 166.230 C 302.505 166.352,302.344 166.256,302.344 166.016 C 302.344 165.775,302.166 165.689,301.949 165.823 C 301.732 165.957,301.093 165.703,300.529 165.260 C 299.965 164.816,299.259 164.453,298.958 164.453 C 298.658 164.453,298.312 164.190,298.189 163.869 C 298.066 163.548,297.820 163.375,297.642 163.485 C 297.465 163.595,297.202 163.495,297.059 163.264 C 296.916 163.032,296.366 162.678,295.837 162.477 C 295.308 162.275,294.982 161.937,295.114 161.724 C 295.248 161.508,295.103 161.433,294.786 161.555 C 294.475 161.674,294.087 161.557,293.924 161.294 C 293.723 160.969,293.792 160.917,294.141 161.133 C 294.482 161.343,294.558 161.296,294.369 160.991 C 294.214 160.740,293.928 160.632,293.734 160.752 C 293.540 160.872,292.967 160.698,292.460 160.366 C 291.954 160.034,291.421 159.881,291.277 160.025 C 291.133 160.169,291.016 160.015,291.016 159.683 C 291.016 159.351,290.718 158.839,290.355 158.544 C 289.906 158.180,289.788 158.164,289.987 158.496 C 290.396 159.177,289.653 159.109,289.075 158.414 C 288.815 158.100,288.222 157.725,287.758 157.581 C 287.294 157.437,286.455 156.996,285.893 156.601 C 285.332 156.206,284.776 155.979,284.658 156.097 C 284.540 156.215,284.044 155.770,283.555 155.109 C 283.066 154.447,282.337 153.906,281.935 153.906 C 281.533 153.906,281.303 153.746,281.424 153.549 C 281.548 153.349,281.116 153.276,280.442 153.382 C 279.466 153.536,279.198 153.419,279.027 152.762 C 278.910 152.317,278.649 151.953,278.447 151.953 C 278.245 151.953,278.165 151.814,278.270 151.644 C 278.375 151.473,278.078 151.306,277.610 151.271 C 277.141 151.236,276.466 150.847,276.109 150.407 C 275.719 149.927,275.211 149.703,274.839 149.846 C 274.498 149.976,274.219 149.889,274.219 149.651 C 274.219 149.413,273.955 149.219,273.633 149.219 C 273.311 149.219,273.047 148.984,273.047 148.698 C 273.047 148.405,272.676 148.205,272.198 148.240 C 271.342 148.303,269.922 147.208,269.922 146.484 C 269.922 146.270,269.790 146.134,269.629 146.183 C 269.160 146.327,265.779 144.835,266.211 144.676 C 267.081 144.354,266.503 90.696,265.620 89.748 C 265.193 89.290,264.844 88.773,264.844 88.598 C 264.844 88.424,264.666 88.281,264.450 88.281 C 263.901 88.281,260.811 86.004,260.425 85.315 C 260.251 85.004,259.936 84.856,259.725 84.986 C 259.513 85.117,259.115 85.036,258.839 84.807 C 258.563 84.578,257.999 84.326,257.587 84.246 C 256.290 83.997,255.465 83.525,255.689 83.162 C 255.808 82.970,255.655 82.813,255.349 82.813 C 255.043 82.813,254.346 82.461,253.800 82.031 C 253.253 81.602,252.445 81.250,252.003 81.250 C 251.561 81.250,251.011 80.898,250.781 80.469 C 250.551 80.039,250.087 79.688,249.749 79.688 C 249.355 79.688,249.218 79.471,249.368 79.081 C 249.502 78.731,249.436 78.577,249.211 78.716 C 248.630 79.075,247.266 78.539,247.266 77.952 C 247.266 77.671,246.723 77.333,246.061 77.200 C 245.398 77.068,244.360 76.607,243.754 76.175 C 243.149 75.744,242.372 75.391,242.030 75.391 C 241.687 75.391,241.402 75.259,241.398 75.098 C 241.393 74.937,241.026 74.365,240.582 73.828 C 240.139 73.291,239.892 73.115,240.034 73.438 C 240.218 73.854,240.137 73.834,239.753 73.368 C 239.384 72.920,239.034 72.825,238.649 73.069 C 237.821 73.593,237.580 73.518,237.641 72.754 C 237.676 72.310,237.460 72.110,237.024 72.182 C 236.655 72.244,236.129 71.936,235.856 71.499 C 235.583 71.061,235.127 70.703,234.844 70.703 C 234.561 70.703,234.419 70.557,234.530 70.378 C 234.733 70.049,234.173 69.911,232.473 69.868 C 231.910 69.854,231.473 69.559,231.357 69.115 C 231.252 68.714,230.831 68.279,230.421 68.149 C 230.011 68.019,229.767 67.766,229.878 67.586 C 229.989 67.407,229.744 67.348,229.335 67.455 C 228.821 67.589,228.511 67.397,228.332 66.833 C 228.100 66.102,227.416 65.801,226.411 65.987 C 226.221 66.022,225.693 65.708,225.239 65.289 C 224.135 64.270,220.899 62.500,220.140 62.500 C 219.583 62.500,219.351 62.031,219.495 61.201 C 219.525 61.024,219.385 60.982,219.182 61.107 C 218.979 61.233,218.541 61.064,218.210 60.732 C 217.878 60.400,217.468 60.116,217.299 60.102 C 217.130 60.087,216.256 59.643,215.357 59.116 C 214.457 58.589,213.490 58.189,213.208 58.227 C 212.160 58.368,211.719 58.187,211.719 57.617 C 211.719 57.295,211.464 57.031,211.152 57.031 C 210.841 57.031,210.407 56.724,210.188 56.348 C 209.969 55.972,209.784 55.817,209.778 56.005 C 209.771 56.192,209.504 56.128,209.184 55.863 C 208.864 55.597,208.686 55.244,208.789 55.078 C 208.892 54.912,208.670 54.800,208.297 54.829 C 207.921 54.859,207.665 54.652,207.725 54.365 C 207.784 54.081,207.655 53.957,207.440 54.091 C 206.985 54.371,205.666 53.730,204.541 52.682 C 204.111 52.281,203.279 51.953,202.693 51.953 C 202.106 51.953,201.346 51.846,201.004 51.714 C 200.561 51.544,200.447 51.645,200.608 52.065 M202.114 65.471 C 202.453 65.601,202.643 65.848,202.536 66.020 C 202.430 66.192,202.688 66.243,203.110 66.133 C 203.540 66.020,204.163 66.217,204.525 66.579 C 204.881 66.935,205.635 67.319,206.199 67.432 C 207.570 67.707,208.629 68.523,208.759 69.401 C 208.838 69.943,209.144 70.088,210.016 69.998 C 210.792 69.918,211.406 70.142,211.895 70.682 C 212.294 71.123,212.761 71.484,212.931 71.484 C 213.102 71.484,213.715 71.924,214.295 72.461 C 214.874 72.998,215.660 73.438,216.040 73.438 C 216.420 73.438,217.111 73.921,217.575 74.512 C 218.038 75.103,218.306 75.366,218.170 75.098 C 217.760 74.289,218.728 74.548,219.648 75.494 C 220.669 76.544,222.090 77.268,223.438 77.425 C 224.120 77.505,224.379 77.745,224.299 78.223 C 224.234 78.614,224.442 78.927,224.788 78.955 C 225.119 78.982,225.522 79.050,225.684 79.105 C 225.845 79.161,226.372 79.335,226.855 79.493 C 227.651 79.751,227.904 80.147,227.785 80.943 C 227.762 81.096,228.034 81.110,228.389 80.974 C 228.803 80.815,228.939 80.881,228.769 81.157 C 228.622 81.393,228.709 81.714,228.960 81.869 C 229.246 82.046,229.313 81.983,229.139 81.701 C 228.974 81.434,229.108 81.250,229.469 81.250 C 229.804 81.250,230.090 81.558,230.106 81.934 C 230.131 82.572,230.150 82.573,230.399 81.947 C 230.714 81.153,232.699 81.913,232.516 82.758 C 232.460 83.015,233.031 83.589,233.785 84.034 C 234.539 84.479,235.156 84.996,235.156 85.182 C 235.156 85.369,235.540 85.380,236.010 85.206 C 236.674 84.960,237.061 85.115,237.755 85.902 C 238.246 86.459,238.653 86.694,238.660 86.426 C 238.677 85.754,239.453 85.805,239.453 86.479 C 239.453 86.776,239.898 87.311,240.442 87.668 C 240.986 88.024,241.337 88.467,241.223 88.653 C 241.108 88.838,241.323 88.909,241.700 88.810 C 242.914 88.493,245.419 89.786,245.201 90.618 C 245.061 91.155,245.170 91.286,245.616 91.115 C 246.015 90.962,246.125 91.039,245.939 91.340 C 245.687 91.749,246.147 91.973,246.973 91.843 C 247.603 91.744,247.222 93.794,246.470 94.545 C 245.663 95.353,244.699 95.251,245.163 94.407 C 245.302 94.153,244.909 94.477,244.290 95.127 C 243.671 95.777,242.461 96.634,241.602 97.032 C 239.329 98.085,238.574 98.825,239.112 99.473 C 239.662 100.137,239.006 100.168,238.311 99.512 C 237.915 99.139,237.752 99.134,237.621 99.490 C 237.527 99.746,237.199 99.860,236.892 99.742 C 236.586 99.625,236.227 99.810,236.094 100.155 C 235.962 100.499,235.590 100.781,235.268 100.781 C 234.908 100.781,234.769 101.007,234.907 101.367 C 235.031 101.689,234.976 101.953,234.786 101.953 C 234.596 101.953,234.366 101.733,234.276 101.465 C 234.147 101.081,233.976 101.089,233.479 101.498 C 233.131 101.786,232.665 101.908,232.443 101.771 C 232.203 101.622,232.134 101.767,232.273 102.128 C 232.406 102.476,232.298 102.734,232.018 102.734 C 231.751 102.734,231.317 103.028,231.054 103.387 C 230.597 104.013,229.862 104.302,228.447 104.413 C 228.086 104.441,227.865 104.582,227.954 104.727 C 228.129 105.010,227.395 105.727,226.758 105.897 C 225.203 106.311,224.219 106.903,224.219 107.424 C 224.219 107.776,223.852 108.065,223.357 108.102 C 222.120 108.195,219.922 109.460,219.922 110.078 C 219.922 110.371,219.619 110.543,219.238 110.467 C 218.862 110.391,218.204 110.651,217.775 111.044 C 217.347 111.438,216.687 111.679,216.310 111.580 C 215.933 111.482,215.711 111.541,215.816 111.712 C 215.922 111.884,215.395 112.315,214.645 112.671 C 213.895 113.027,213.281 113.485,213.281 113.690 C 213.281 113.895,213.039 114.063,212.743 114.063 C 212.447 114.063,211.983 114.330,211.711 114.658 C 211.439 114.985,211.138 115.175,211.043 115.079 C 210.947 114.983,210.058 115.418,209.069 116.046 C 207.174 117.248,206.409 117.488,206.873 116.737 C 207.042 116.463,206.981 116.391,206.718 116.554 C 206.479 116.701,206.377 117.064,206.491 117.360 C 206.612 117.677,206.364 118.004,205.888 118.155 C 205.442 118.296,205.078 118.685,205.078 119.019 C 205.078 119.503,204.963 119.532,204.518 119.162 C 204.079 118.798,203.747 118.837,202.975 119.342 C 201.543 120.280,196.383 118.300,197.126 117.097 C 197.279 116.850,197.204 116.789,196.943 116.950 C 196.350 117.317,194.833 116.476,195.153 115.957 C 195.324 115.681,195.149 115.685,194.617 115.969 C 193.995 116.302,193.779 116.264,193.596 115.788 C 193.469 115.456,193.198 115.288,192.995 115.414 C 192.791 115.539,192.307 115.316,191.918 114.916 C 189.920 112.864,187.109 111.388,187.109 112.392 C 187.109 112.941,186.997 112.904,186.494 112.186 C 186.156 111.703,185.672 111.348,185.420 111.398 C 185.167 111.447,184.357 110.911,183.619 110.207 C 182.071 108.729,179.714 107.451,179.004 107.704 C 178.735 107.799,178.494 107.687,178.467 107.454 C 178.440 107.222,178.396 106.812,178.369 106.543 C 178.301 105.863,176.143 105.680,175.698 106.316 C 175.453 106.668,175.386 106.419,175.493 105.549 C 175.580 104.842,175.477 104.155,175.265 104.024 C 175.049 103.891,175.002 103.984,175.158 104.237 C 175.311 104.485,175.245 104.687,175.011 104.688 C 174.777 104.688,174.484 104.425,174.361 104.105 C 174.238 103.785,173.453 103.318,172.616 103.067 C 171.779 102.816,171.094 102.463,171.094 102.282 C 171.094 102.101,170.874 101.949,170.605 101.944 C 170.337 101.940,169.678 101.573,169.141 101.129 C 168.604 100.686,168.428 100.454,168.750 100.615 C 169.072 100.775,169.209 100.766,169.053 100.594 C 168.898 100.422,168.042 100.239,167.152 100.187 C 166.261 100.135,165.422 99.936,165.286 99.745 C 164.356 98.436,161.439 96.484,160.411 96.484 C 159.770 96.484,159.360 96.369,159.502 96.227 C 159.879 95.850,159.006 94.938,158.467 95.145 C 158.213 95.242,157.774 94.950,157.490 94.495 C 157.114 93.894,157.104 93.749,157.453 93.965 C 157.761 94.155,157.833 94.099,157.654 93.810 C 157.501 93.562,157.104 93.359,156.771 93.359 C 156.385 93.359,156.251 93.140,156.399 92.753 C 156.532 92.406,156.467 92.249,156.246 92.386 C 155.804 92.659,155.771 92.361,156.106 91.113 C 156.235 90.630,156.507 90.234,156.709 90.234 C 156.912 90.234,156.958 90.427,156.813 90.663 C 156.647 90.931,156.821 91.031,157.278 90.932 C 157.679 90.845,157.957 90.543,157.894 90.261 C 157.825 89.951,158.007 89.835,158.354 89.968 C 158.965 90.202,160.929 89.448,160.934 88.977 C 160.936 88.823,161.200 88.797,161.520 88.920 C 161.852 89.047,162.206 88.875,162.342 88.519 C 162.474 88.176,162.739 87.992,162.932 88.111 C 163.124 88.230,163.281 88.117,163.281 87.859 C 163.281 87.602,163.589 87.157,163.965 86.872 C 164.616 86.378,164.616 86.352,163.965 86.341 C 163.589 86.334,163.281 86.150,163.281 85.932 C 163.281 85.696,163.812 85.758,164.602 86.088 C 165.856 86.612,165.912 86.601,165.719 85.866 C 165.543 85.191,165.672 85.117,166.731 85.284 C 167.399 85.389,167.922 85.359,167.895 85.218 C 167.748 84.466,168.557 83.594,169.401 83.594 C 169.932 83.594,170.252 83.422,170.120 83.208 C 169.983 82.986,170.140 82.921,170.488 83.054 C 170.875 83.203,171.094 83.068,171.094 82.682 C 171.094 81.899,171.630 81.587,173.381 81.354 C 174.164 81.249,174.934 80.963,175.092 80.718 C 175.250 80.474,175.381 80.447,175.385 80.659 C 175.388 80.872,175.858 80.388,176.430 79.585 C 177.001 78.782,177.782 78.125,178.164 78.125 C 178.547 78.125,178.962 77.960,179.087 77.758 C 179.211 77.557,179.650 77.457,180.061 77.536 C 180.472 77.615,181.016 77.430,181.269 77.125 C 181.522 76.821,181.885 76.667,182.076 76.785 C 182.266 76.903,182.422 76.720,182.422 76.378 C 182.422 75.714,183.139 75.317,184.507 75.222 C 184.972 75.190,185.310 74.957,185.259 74.705 C 185.206 74.446,185.418 74.344,185.747 74.470 C 186.088 74.601,186.328 74.471,186.328 74.154 C 186.328 73.858,186.976 73.268,187.768 72.843 C 188.560 72.418,189.614 71.633,190.112 71.098 C 190.609 70.563,191.016 70.332,191.016 70.585 C 191.016 70.838,191.348 71.020,191.754 70.990 C 192.185 70.957,192.412 70.724,192.298 70.428 C 192.177 70.113,192.412 69.922,192.918 69.922 C 193.366 69.922,194.020 69.482,194.372 68.945 C 195.016 67.963,196.817 67.491,196.237 68.457 C 196.029 68.803,196.132 68.793,196.590 68.422 C 196.945 68.134,197.344 67.555,197.477 67.136 C 197.648 66.598,197.940 66.444,198.469 66.612 C 198.881 66.742,199.219 66.704,199.219 66.525 C 199.219 66.347,199.614 66.005,200.098 65.766 C 201.224 65.208,201.373 65.186,202.114 65.471 M151.571 104.069 C 152.605 104.588,153.553 104.911,153.678 104.785 C 153.804 104.660,153.906 104.751,153.906 104.987 C 153.906 105.223,154.263 105.529,154.700 105.668 C 155.137 105.807,155.920 106.346,156.440 106.866 C 157.041 107.467,157.836 107.813,158.618 107.813 C 159.480 107.813,159.790 107.968,159.651 108.330 C 159.528 108.650,160.259 109.330,161.562 110.110 C 162.722 110.804,163.672 111.494,163.673 111.643 C 163.673 111.792,164.332 111.960,165.138 112.015 C 166.497 112.109,167.090 112.534,167.950 114.030 C 168.125 114.334,168.816 114.583,169.486 114.583 C 170.155 114.583,170.705 114.774,170.706 115.007 C 170.712 115.752,173.921 117.276,174.283 116.706 C 174.562 116.267,174.814 117.453,174.656 118.457 C 174.630 118.618,174.829 118.770,175.098 118.795 C 177.365 119.004,180.026 119.994,179.813 120.549 C 179.670 120.921,179.991 121.174,180.817 121.339 C 181.485 121.473,182.053 121.736,182.080 121.924 C 182.107 122.112,182.155 122.485,182.187 122.754 C 182.218 123.022,182.561 123.188,182.948 123.121 C 183.335 123.054,183.894 123.200,184.190 123.446 C 184.491 123.696,185.105 123.773,185.582 123.622 C 186.339 123.381,186.414 123.467,186.239 124.380 C 186.131 124.946,186.222 125.520,186.441 125.656 C 186.669 125.797,186.720 125.709,186.561 125.451 C 186.385 125.166,186.578 125.000,187.086 125.000 C 187.529 125.000,187.896 125.132,187.903 125.293 C 187.924 125.803,189.829 127.002,190.931 127.200 C 191.515 127.304,192.051 127.555,192.122 127.757 C 192.194 127.960,192.590 128.125,193.001 128.125 C 193.413 128.125,193.750 128.357,193.750 128.640 C 193.750 129.415,195.410 130.697,196.210 130.541 C 197.192 130.350,198.267 131.260,197.577 131.698 C 197.226 131.921,197.345 132.021,197.963 132.025 C 198.454 132.029,199.288 132.315,199.817 132.661 C 201.018 133.448,203.332 133.102,204.570 131.950 C 205.068 131.487,205.692 131.252,206.055 131.391 C 206.427 131.534,206.582 131.471,206.436 131.235 C 206.209 130.868,208.444 129.809,209.068 129.988 C 209.221 130.033,209.255 129.828,209.142 129.534 C 209.013 129.198,209.354 128.854,210.058 128.608 C 210.675 128.393,211.440 127.977,211.757 127.683 C 212.537 126.961,213.956 126.172,214.474 126.172 C 214.706 126.172,215.499 125.712,216.237 125.149 C 216.975 124.586,217.589 124.279,217.603 124.465 C 217.617 124.652,217.787 124.409,217.981 123.926 C 218.307 123.115,219.756 122.724,221.289 123.033 C 221.504 123.077,221.547 122.980,221.386 122.818 C 220.973 122.406,222.247 121.094,223.060 121.094 C 223.827 121.094,224.732 120.175,224.346 119.788 C 224.065 119.508,224.707 119.406,226.062 119.514 C 226.538 119.553,227.242 119.402,227.624 119.179 C 228.089 118.909,228.142 118.770,227.784 118.762 C 227.340 118.752,227.336 118.644,227.760 118.133 C 228.054 117.779,228.650 117.587,229.156 117.684 C 229.642 117.777,230.027 117.747,230.013 117.618 C 229.915 116.767,230.140 116.016,230.492 116.016 C 230.719 116.016,230.786 116.209,230.640 116.445 C 230.455 116.744,230.629 116.739,231.211 116.427 C 231.671 116.181,232.263 116.104,232.528 116.256 C 232.792 116.407,232.882 116.392,232.728 116.222 C 232.446 115.909,235.230 113.672,235.902 113.672 C 236.100 113.672,236.440 113.188,236.655 112.598 C 237.011 111.623,237.051 111.605,237.079 112.402 C 237.095 112.886,237.285 113.281,237.500 113.281 C 237.715 113.281,237.870 113.149,237.844 112.988 C 237.710 112.138,237.966 111.719,238.619 111.719 C 239.020 111.719,239.795 111.367,240.341 110.938 C 240.887 110.508,241.604 110.156,241.933 110.156 C 242.263 110.156,242.648 109.968,242.790 109.739 C 242.932 109.510,243.332 109.431,243.680 109.564 C 244.028 109.698,244.192 109.687,244.045 109.540 C 243.413 108.908,244.603 107.734,245.710 107.897 C 246.566 108.023,246.930 107.853,247.304 107.155 C 247.570 106.657,248.039 106.250,248.345 106.250 C 248.651 106.250,248.994 105.896,249.107 105.462 C 249.220 105.029,249.512 104.706,249.754 104.744 C 249.997 104.782,250.693 104.608,251.302 104.357 C 251.911 104.106,252.552 103.989,252.726 104.097 C 252.901 104.204,253.144 104.030,253.267 103.709 C 253.614 102.805,254.792 102.962,254.503 103.873 C 254.372 104.285,254.448 104.735,254.671 104.873 C 255.156 105.173,255.159 142.574,254.674 145.310 C 254.502 146.275,254.496 147.154,254.658 147.263 C 254.821 147.372,254.912 148.037,254.859 148.741 C 254.805 149.464,255.014 150.271,255.340 150.596 C 255.656 150.913,255.776 151.172,255.605 151.172 C 255.434 151.172,255.689 151.448,256.170 151.785 C 256.651 152.122,256.926 152.588,256.782 152.821 C 256.637 153.057,256.699 153.135,256.923 152.996 C 257.145 152.859,257.883 153.024,258.563 153.364 C 259.243 153.703,260.099 154.038,260.466 154.109 C 260.833 154.179,261.177 154.273,261.230 154.316 C 261.284 154.359,261.510 154.417,261.732 154.443 C 261.954 154.470,262.354 154.932,262.621 155.469 C 263.121 156.473,265.701 158.116,266.867 158.172 C 267.742 158.214,268.823 159.331,268.498 159.857 C 268.338 160.117,268.424 160.162,268.723 159.977 C 269.024 159.792,269.715 160.169,270.542 160.970 C 271.275 161.681,271.875 162.071,271.875 161.837 C 271.875 160.854,273.827 161.506,273.859 162.500 C 273.876 163.037,273.975 163.268,274.079 163.013 C 274.207 162.697,274.509 162.791,275.024 163.306 C 275.441 163.722,276.045 164.063,276.367 164.063 C 276.689 164.063,276.953 164.247,276.953 164.472 C 276.953 164.697,277.437 165.095,278.027 165.355 C 278.618 165.616,279.845 166.311,280.754 166.899 C 281.663 167.487,282.586 167.969,282.805 167.969 C 283.024 167.969,283.203 168.227,283.203 168.542 C 283.203 168.873,283.434 169.027,283.750 168.906 C 284.050 168.791,284.414 168.887,284.558 169.120 C 284.702 169.353,284.990 169.439,285.199 169.310 C 285.408 169.181,285.936 169.529,286.372 170.084 C 286.809 170.640,287.499 171.094,287.907 171.094 C 288.437 171.094,288.577 171.278,288.398 171.744 C 288.241 172.151,288.304 172.298,288.565 172.137 C 288.793 171.995,289.076 172.129,289.193 172.433 C 289.323 172.771,289.719 172.904,290.210 172.776 C 290.669 172.656,291.016 172.753,291.016 173.001 C 291.016 173.241,291.147 173.417,291.309 173.391 C 292.300 173.235,292.914 173.547,293.124 174.316 C 293.278 174.883,294.092 175.542,295.412 176.172 L 297.461 177.148 297.461 189.063 C 297.461 198.744,297.364 200.956,296.944 200.869 C 296.659 200.810,296.538 200.943,296.675 201.165 C 296.812 201.387,296.640 201.677,296.291 201.811 C 295.943 201.945,295.746 202.283,295.854 202.563 C 296.018 202.993,294.708 203.569,293.295 203.689 C 293.152 203.701,292.691 204.106,292.272 204.590 C 291.853 205.073,291.141 205.469,290.691 205.469 C 290.240 205.469,289.683 205.820,289.453 206.250 C 289.200 206.723,288.635 207.031,288.021 207.031 C 287.373 207.031,286.553 207.512,285.752 208.362 C 284.925 209.238,284.323 209.584,283.987 209.377 C 283.707 209.204,283.284 209.214,283.047 209.400 C 282.811 209.586,281.972 210.278,281.183 210.937 C 280.395 211.596,279.644 211.965,279.515 211.756 C 279.386 211.547,278.574 212.068,277.710 212.914 C 276.847 213.761,275.898 214.453,275.602 214.453 C 274.610 214.453,273.828 214.922,273.828 215.517 C 273.828 215.936,273.544 216.052,272.848 215.919 C 272.070 215.771,271.956 215.838,272.296 216.247 C 272.781 216.832,272.411 217.714,271.831 217.356 C 271.621 217.226,271.188 217.338,270.868 217.604 C 270.547 217.869,269.766 218.072,269.131 218.054 C 268.464 218.035,267.768 218.303,267.484 218.687 C 267.214 219.054,266.553 219.557,266.016 219.807 C 265.299 220.139,265.221 220.267,265.723 220.286 C 266.099 220.301,266.406 220.595,266.406 220.940 C 266.406 221.389,266.212 221.484,265.723 221.274 C 264.737 220.851,262.414 221.029,262.708 221.505 C 262.804 221.660,262.620 222.004,262.300 222.269 C 261.833 222.657,261.718 222.646,261.713 222.216 C 261.709 221.884,261.598 221.832,261.420 222.080 C 260.986 222.687,257.605 225.263,257.925 224.743 C 258.113 224.439,257.949 224.358,257.422 224.496 C 256.543 224.726,256.391 225.241,257.129 225.490 C 257.397 225.580,256.958 225.779,256.152 225.931 C 255.227 226.106,254.688 226.425,254.688 226.799 C 254.688 227.124,254.528 227.291,254.332 227.170 C 253.637 226.740,252.704 227.413,252.944 228.171 C 253.073 228.577,252.991 228.906,252.761 228.906 C 252.531 228.906,252.344 228.768,252.344 228.599 C 252.344 228.431,252.018 228.292,251.620 228.292 C 251.222 228.292,250.914 228.552,250.936 228.869 C 250.961 229.229,250.609 229.456,250.000 229.472 C 248.914 229.501,247.266 230.751,247.266 231.547 C 247.266 231.874,246.876 232.020,246.191 231.948 C 245.275 231.852,245.135 231.965,245.240 232.718 C 245.313 233.242,245.116 233.694,244.754 233.833 C 243.685 234.243,243.855 296.939,244.929 298.447 C 245.735 299.580,245.991 301.005,245.313 300.586 C 245.098 300.453,244.922 300.541,244.922 300.781 C 244.922 301.021,244.760 301.118,244.563 300.996 C 244.365 300.874,243.855 301.216,243.430 301.757 C 242.938 302.382,242.429 302.653,242.031 302.500 C 241.688 302.368,241.406 302.455,241.406 302.693 C 241.406 302.930,241.185 303.125,240.914 303.125 C 240.644 303.125,240.203 303.477,239.934 303.906 C 239.666 304.336,239.184 304.688,238.864 304.688 C 238.543 304.688,238.281 304.939,238.281 305.247 C 238.281 305.568,237.822 305.860,237.207 305.931 C 236.534 306.009,235.987 306.390,235.742 306.952 C 235.488 307.536,235.112 307.788,234.667 307.672 C 234.291 307.575,234.082 307.654,234.202 307.849 C 234.323 308.044,234.171 308.203,233.865 308.203 C 233.559 308.203,232.862 308.555,232.315 308.984 C 231.201 309.861,229.862 310.057,230.317 309.277 C 230.474 309.009,229.909 309.536,229.062 310.449 C 228.215 311.362,227.390 312.109,227.230 312.109 C 227.069 312.109,226.246 312.546,225.402 313.079 C 224.435 313.689,223.772 313.898,223.614 313.642 C 223.458 313.389,223.144 313.502,222.785 313.941 C 222.468 314.330,222.337 314.385,222.496 314.063 C 222.654 313.740,222.324 313.960,221.762 314.551 C 221.200 315.142,220.556 315.647,220.331 315.674 C 220.106 315.701,219.702 315.745,219.434 315.771 C 219.166 315.798,218.946 316.154,218.946 316.562 C 218.945 317.047,218.616 317.354,217.992 317.449 C 216.916 317.615,216.602 317.844,216.602 318.461 C 216.602 318.697,216.099 319.023,215.485 319.188 C 214.871 319.352,214.080 319.746,213.728 320.064 C 213.375 320.382,212.559 320.759,211.914 320.902 C 211.270 321.045,210.115 321.859,209.348 322.710 C 208.581 323.560,207.570 324.286,207.102 324.321 C 206.633 324.356,206.250 324.534,206.250 324.716 C 206.250 324.897,206.067 324.933,205.842 324.794 C 205.618 324.656,205.179 324.755,204.866 325.014 C 204.553 325.274,204.297 325.350,204.297 325.183 C 204.297 325.016,203.975 325.170,203.582 325.526 C 203.188 325.882,202.781 326.088,202.677 325.984 C 202.573 325.880,201.927 325.955,201.243 326.151 C 200.216 326.446,199.933 326.386,199.623 325.806 C 199.403 325.395,198.594 325.000,197.670 324.852 C 196.803 324.714,196.094 324.415,196.094 324.188 C 196.094 323.941,195.749 323.885,195.233 324.049 C 194.413 324.309,194.405 324.289,195.056 323.638 C 195.773 322.921,195.730 322.668,194.860 322.491 C 193.763 322.267,192.981 321.780,193.187 321.448 C 193.304 321.258,193.145 321.201,192.833 321.320 C 192.522 321.440,192.150 321.350,192.009 321.120 C 191.867 320.891,191.418 320.703,191.011 320.703 C 189.959 320.703,188.267 319.871,188.512 319.474 C 188.625 319.291,188.264 319.141,187.709 319.141 C 186.992 319.141,186.592 318.858,186.328 318.164 C 186.113 317.599,185.647 317.188,185.220 317.188 C 184.399 317.188,181.539 315.076,181.887 314.728 C 182.009 314.606,181.757 314.598,181.326 314.711 C 180.761 314.858,180.468 314.676,180.271 314.054 C 180.040 313.328,179.791 313.226,178.695 313.404 C 177.435 313.608,176.245 312.947,176.826 312.366 C 176.968 312.225,176.772 312.109,176.390 312.109 C 175.946 312.109,175.776 311.907,175.915 311.543 C 176.067 311.146,175.944 311.049,175.502 311.219 C 175.048 311.393,174.961 311.316,175.192 310.944 C 175.400 310.606,175.360 310.520,175.076 310.695 C 174.837 310.843,174.326 310.782,173.942 310.560 C 173.557 310.338,172.741 309.978,172.128 309.760 C 171.337 309.479,171.084 309.183,171.254 308.739 C 171.448 308.234,171.276 308.145,170.365 308.279 C 169.602 308.391,169.104 308.235,168.832 307.799 C 168.610 307.444,167.808 306.859,167.049 306.499 C 164.795 305.429,161.706 303.268,162.004 302.970 C 162.156 302.818,162.007 302.798,161.672 302.927 C 161.337 303.055,160.837 302.889,160.562 302.557 C 160.286 302.225,159.555 301.953,158.937 301.953 C 157.705 301.953,157.294 300.284,158.281 299.297 C 158.646 298.932,158.608 298.828,158.109 298.828 C 157.756 298.828,157.361 298.654,157.229 298.442 C 157.098 298.229,157.237 298.151,157.541 298.267 C 158.183 298.514,158.207 297.258,158.293 258.271 C 158.331 241.132,158.219 233.060,157.940 232.881 C 157.715 232.736,157.241 232.052,156.887 231.361 C 156.463 230.534,156.046 230.181,155.664 230.327 C 155.335 230.454,154.981 230.280,154.845 229.926 C 154.713 229.582,154.467 229.387,154.297 229.492 C 154.127 229.597,153.880 229.401,153.747 229.055 C 153.552 228.547,153.396 228.519,152.925 228.910 C 152.605 229.175,152.344 229.229,152.344 229.029 C 152.344 228.829,152.080 228.324,151.757 227.907 C 151.268 227.275,151.210 227.262,151.408 227.832 C 151.573 228.306,151.445 228.516,150.992 228.516 C 150.525 228.516,150.406 228.301,150.576 227.767 C 150.706 227.356,150.603 226.889,150.346 226.730 C 150.068 226.558,149.982 226.607,150.133 226.852 C 150.475 227.406,149.480 227.749,148.793 227.314 C 148.322 227.016,148.324 226.964,148.805 226.959 C 150.156 226.945,147.745 225.805,146.339 225.794 C 145.047 225.783,144.896 225.697,145.307 225.202 C 145.736 224.685,144.446 223.743,143.359 223.780 C 143.252 223.783,142.931 223.343,142.647 222.800 C 142.304 222.146,141.922 221.893,141.512 222.051 C 141.154 222.188,140.521 221.937,140.007 221.454 C 139.043 220.549,138.167 220.732,138.560 221.756 C 138.724 222.183,138.653 222.300,138.346 222.110 C 138.094 221.955,137.983 221.442,138.100 220.972 C 138.271 220.286,138.060 220.009,137.028 219.568 C 136.321 219.265,135.215 218.651,134.570 218.202 C 133.926 217.753,133.311 217.404,133.203 217.427 C 132.748 217.523,131.275 216.291,131.469 215.977 C 131.586 215.788,131.380 215.750,131.011 215.891 C 130.575 216.058,130.434 215.998,130.606 215.718 C 130.753 215.482,130.713 215.190,130.520 215.070 C 130.326 214.951,130.049 215.246,129.906 215.727 L 129.644 216.602 129.216 215.723 C 128.980 215.239,128.665 214.844,128.517 214.844 C 128.368 214.844,127.747 214.414,127.136 213.889 C 126.525 213.365,125.902 213.011,125.752 213.104 C 125.357 213.348,124.564 212.285,124.894 211.955 C 125.047 211.802,124.877 211.790,124.517 211.929 C 124.102 212.088,123.521 211.838,122.929 211.246 C 122.415 210.732,121.801 210.376,121.564 210.455 C 121.327 210.534,120.917 210.253,120.653 209.831 C 120.389 209.408,119.970 209.140,119.721 209.236 C 119.151 209.454,115.002 206.678,115.146 206.174 C 115.205 205.969,115.084 205.906,114.877 206.034 C 114.371 206.347,112.033 204.899,112.404 204.503 C 112.564 204.331,112.301 204.396,111.818 204.647 C 111.044 205.050,110.862 204.975,110.256 204.004 C 109.816 203.298,109.314 202.956,108.855 203.049 C 108.461 203.129,107.846 202.907,107.488 202.556 C 107.129 202.205,106.491 201.681,106.070 201.392 C 105.337 200.889,105.304 200.360,105.317 189.301 L 105.330 177.737 106.260 176.747 C 106.771 176.203,107.421 175.847,107.705 175.956 C 108.112 176.112,108.130 175.983,107.789 175.347 C 107.419 174.656,107.460 174.562,108.073 174.695 C 108.467 174.781,108.741 175.073,108.682 175.345 C 108.623 175.617,108.747 175.733,108.958 175.602 C 109.168 175.472,109.231 175.079,109.097 174.729 C 108.905 174.229,109.033 174.140,109.700 174.315 C 110.166 174.437,110.547 174.367,110.547 174.159 C 110.547 173.952,110.703 173.878,110.893 173.996 C 111.084 174.114,111.338 173.831,111.459 173.369 C 111.639 172.681,111.784 172.614,112.250 173.002 C 112.694 173.370,112.885 173.371,113.112 173.005 C 113.311 172.683,113.229 172.634,112.853 172.849 C 112.482 173.060,112.431 173.032,112.695 172.761 C 113.356 172.085,117.467 169.941,117.685 170.159 C 117.798 170.272,117.864 170.133,117.832 169.850 C 117.800 169.567,117.949 169.336,118.164 169.336 C 118.379 169.336,118.506 169.481,118.447 169.658 C 118.388 169.835,118.523 169.867,118.747 169.729 C 118.970 169.590,119.034 169.284,118.888 169.047 C 118.719 168.775,118.849 168.704,119.240 168.854 C 119.602 168.993,119.950 168.849,120.082 168.505 C 120.212 168.167,120.514 168.039,120.798 168.202 C 121.068 168.357,121.172 168.354,121.028 168.194 C 120.705 167.833,121.882 166.406,122.502 166.406 C 122.752 166.406,123.054 166.032,123.173 165.575 C 123.340 164.935,123.614 164.786,124.361 164.929 C 125.072 165.065,125.381 164.922,125.519 164.393 C 125.623 163.996,125.911 163.672,126.158 163.672 C 126.406 163.672,126.483 163.875,126.330 164.123 C 126.141 164.428,126.228 164.468,126.600 164.246 C 128.236 163.266,129.238 162.330,129.022 161.981 C 128.876 161.744,129.038 161.686,129.428 161.835 C 129.786 161.973,130.078 161.944,130.078 161.772 C 130.078 161.600,130.474 161.489,130.957 161.527 C 131.470 161.567,132.187 161.191,132.678 160.625 C 133.199 160.023,133.755 159.744,134.138 159.891 C 134.495 160.028,134.717 159.941,134.663 159.686 C 134.612 159.443,135.010 159.010,135.547 158.724 C 136.084 158.438,136.479 158.028,136.426 157.813 C 136.372 157.598,136.504 157.422,136.719 157.422 C 136.934 157.422,137.112 157.642,137.115 157.910 C 137.119 158.215,137.229 158.251,137.408 158.006 C 138.254 156.849,141.350 154.968,140.781 155.957 C 140.620 156.236,140.650 156.308,140.850 156.125 C 141.043 155.948,141.203 155.529,141.206 155.192 C 141.212 154.510,141.667 154.229,143.945 153.505 C 144.805 153.232,145.771 152.709,146.094 152.342 C 146.416 151.975,147.069 151.551,147.544 151.401 C 148.259 151.176,148.369 150.929,148.179 149.978 C 148.034 149.250,148.111 148.828,148.389 148.828 C 148.630 148.828,148.828 148.477,148.828 148.047 C 148.828 147.617,148.608 147.263,148.340 147.260 C 148.009 147.256,148.040 147.120,148.438 146.839 C 148.878 146.527,148.903 146.376,148.535 146.227 C 147.953 145.991,147.881 144.289,148.438 143.945 C 148.652 143.813,148.828 143.264,148.828 142.727 C 148.828 142.176,148.658 141.856,148.438 141.992 C 148.210 142.133,148.047 141.736,148.047 141.039 C 148.047 140.381,148.223 139.844,148.438 139.844 C 148.652 139.844,148.828 139.658,148.828 139.430 C 148.828 139.203,148.652 139.125,148.438 139.258 C 148.199 139.405,148.047 138.817,148.047 137.751 C 148.047 136.786,148.247 135.936,148.494 135.854 C 148.822 135.744,148.827 135.493,148.512 134.904 C 148.197 134.317,148.203 133.984,148.534 133.654 C 148.874 133.313,148.851 133.203,148.438 133.203 C 148.012 133.203,147.995 133.099,148.359 132.734 C 148.927 132.167,148.994 130.320,148.435 130.666 C 148.213 130.803,148.247 130.458,148.510 129.879 C 148.884 129.059,148.874 128.678,148.460 128.016 C 148.087 127.419,148.066 127.142,148.384 127.036 C 148.628 126.955,148.828 126.629,148.828 126.312 C 148.828 125.995,148.652 125.844,148.438 125.977 C 148.223 126.109,148.047 126.042,148.047 125.827 C 148.047 125.613,148.227 125.325,148.448 125.189 C 148.918 124.899,148.831 122.177,148.342 121.840 C 148.158 121.713,148.234 121.111,148.511 120.503 C 148.908 119.631,148.912 119.364,148.531 119.237 C 147.957 119.045,147.871 116.797,148.438 116.797 C 148.652 116.797,148.825 116.489,148.822 116.113 C 148.817 115.529,148.761 115.515,148.438 116.016 C 148.142 116.472,148.058 116.364,148.053 115.527 C 148.050 114.928,148.263 114.450,148.535 114.447 C 148.874 114.443,148.852 114.333,148.463 114.086 C 148.013 113.802,147.997 113.616,148.384 113.150 C 148.711 112.757,148.734 112.488,148.456 112.316 C 148.019 112.046,147.873 104.813,148.284 103.743 C 148.611 102.891,149.376 102.967,151.571 104.069 M174.110 164.192 C 173.955 164.586,173.802 165.552,173.769 166.341 C 173.712 167.756,173.707 167.752,173.438 166.016 C 173.239 164.739,173.148 165.514,173.106 168.848 C 173.067 171.855,173.190 173.438,173.461 173.438 C 173.688 173.438,173.767 173.611,173.636 173.824 C 173.502 174.039,173.647 174.114,173.963 173.993 C 174.282 173.870,174.783 174.139,175.113 174.610 C 175.434 175.069,175.936 175.394,176.227 175.332 C 176.519 175.270,177.248 175.546,177.848 175.946 C 178.448 176.346,179.549 176.728,180.295 176.795 C 181.041 176.862,182.040 177.189,182.514 177.521 C 182.989 177.853,183.695 178.125,184.084 178.125 C 184.472 178.125,184.877 178.351,184.983 178.627 C 185.088 178.902,185.654 179.166,186.240 179.213 C 186.826 179.260,187.516 179.584,187.774 179.933 C 188.044 180.298,188.511 180.464,188.873 180.325 C 189.489 180.089,192.487 181.451,193.059 182.227 C 193.218 182.442,193.355 182.267,193.365 181.836 C 193.382 181.118,193.415 181.110,193.781 181.738 C 194.000 182.114,194.363 182.422,194.588 182.422 C 194.813 182.422,195.520 182.795,196.160 183.250 C 196.817 183.718,197.991 184.101,198.857 184.129 C 199.700 184.157,200.390 184.332,200.390 184.518 C 200.391 184.704,200.742 184.765,201.172 184.652 C 201.680 184.520,201.953 184.640,201.953 184.998 C 201.953 185.300,202.305 185.547,202.734 185.547 C 203.168 185.547,203.516 185.807,203.516 186.133 C 203.516 186.455,203.691 186.741,203.906 186.768 C 204.655 186.861,204.894 186.920,206.641 187.443 C 208.961 188.138,212.109 189.520,212.109 189.844 C 212.109 189.985,212.505 190.087,212.988 190.070 C 213.495 190.052,213.826 190.246,213.770 190.527 C 213.716 190.796,213.848 191.016,214.063 191.016 C 214.277 191.016,214.453 191.206,214.453 191.439 C 214.453 191.672,214.235 191.789,213.968 191.700 C 213.702 191.612,213.240 191.783,212.941 192.081 C 212.643 192.379,212.169 192.535,211.887 192.426 C 211.588 192.312,211.168 192.697,210.878 193.352 C 210.605 193.970,210.240 194.388,210.067 194.281 C 209.894 194.174,209.854 193.923,209.978 193.723 C 210.300 193.202,209.896 193.272,208.539 193.974 C 207.886 194.311,207.094 194.489,206.780 194.369 C 206.466 194.248,206.305 194.304,206.422 194.493 C 206.652 194.865,203.969 196.287,203.647 195.964 C 203.539 195.856,203.114 196.105,202.702 196.517 C 202.290 196.929,201.602 197.266,201.172 197.266 C 200.738 197.266,200.391 197.526,200.391 197.852 C 200.391 198.174,200.127 198.438,199.805 198.438 C 199.482 198.438,199.219 198.223,199.219 197.960 C 199.219 197.697,198.945 197.873,198.611 198.351 C 198.254 198.860,197.593 199.219,197.011 199.219 C 195.862 199.219,193.750 200.361,193.750 200.982 C 193.750 201.230,193.222 201.344,192.474 201.257 C 191.534 201.147,190.935 201.353,190.193 202.040 C 189.193 202.966,188.070 203.081,188.503 202.213 C 188.628 201.963,188.465 202.083,188.141 202.481 C 187.817 202.878,187.365 203.087,187.135 202.946 C 186.906 202.804,186.719 202.847,186.719 203.040 C 186.719 203.400,185.459 204.095,182.530 205.348 C 181.622 205.737,180.875 206.274,180.869 206.543 C 180.864 206.812,180.673 207.031,180.446 207.031 C 180.218 207.031,180.134 206.867,180.258 206.666 C 180.390 206.452,179.955 206.465,179.207 206.697 C 178.504 206.916,177.622 207.189,177.246 207.304 C 176.870 207.419,176.563 207.767,176.563 208.076 C 176.563 208.386,176.379 208.526,176.155 208.388 C 175.567 208.025,174.616 208.939,174.570 209.911 C 174.535 210.665,174.507 210.654,174.267 209.795 C 174.121 209.273,173.743 208.777,173.427 208.691 C 172.933 208.556,172.934 208.598,173.438 208.984 C 173.880 209.324,173.904 209.483,173.535 209.633 C 172.925 209.880,172.830 218.359,173.438 218.359 C 173.652 218.359,173.828 218.623,173.828 218.945 C 173.828 219.268,174.004 219.531,174.219 219.531 C 174.434 219.531,174.609 219.277,174.609 218.967 C 174.609 218.554,175.029 218.426,176.172 218.490 C 177.031 218.538,177.734 218.452,177.734 218.299 C 177.734 218.146,178.130 217.901,178.613 217.754 C 179.097 217.606,179.756 217.262,180.078 216.989 C 180.400 216.717,181.227 216.374,181.916 216.227 C 182.676 216.066,183.265 215.654,183.416 215.179 C 183.656 214.424,183.692 214.421,184.439 215.097 C 184.951 215.561,185.171 215.620,185.087 215.272 C 185.015 214.972,185.464 214.587,186.133 214.376 C 186.777 214.172,187.659 213.835,188.093 213.626 C 188.526 213.417,189.255 213.218,189.713 213.184 C 190.347 213.136,190.507 212.915,190.386 212.250 C 190.299 211.770,190.435 211.250,190.688 211.094 C 190.999 210.902,191.067 211.020,190.899 211.459 C 190.559 212.346,191.636 212.317,192.161 211.426 C 192.512 210.830,192.614 210.817,192.956 211.328 C 193.171 211.650,193.350 211.716,193.353 211.475 C 193.359 211.077,195.456 210.360,196.206 210.499 C 196.375 210.531,196.902 210.142,197.378 209.636 C 198.092 208.876,199.014 208.439,200.781 208.026 C 200.889 208.001,201.379 207.757,201.871 207.484 C 202.363 207.211,203.066 207.017,203.433 207.054 C 204.663 207.177,205.032 207.037,206.117 206.031 C 206.711 205.481,207.467 205.095,207.798 205.175 C 208.488 205.341,209.686 204.253,209.483 203.645 C 209.400 203.396,210.000 203.266,211.021 203.312 C 212.079 203.360,212.962 203.160,213.420 202.768 C 213.818 202.427,214.216 202.196,214.303 202.254 C 214.390 202.312,214.956 202.104,215.560 201.791 C 216.165 201.479,217.174 201.168,217.802 201.100 C 218.431 201.032,219.278 200.565,219.685 200.063 C 220.203 199.422,220.706 199.203,221.367 199.329 C 221.885 199.428,222.528 199.291,222.795 199.024 C 223.414 198.405,225.607 197.266,226.180 197.266 C 228.058 197.266,229.893 190.596,228.421 189.124 C 228.035 188.738,228.046 188.571,228.477 188.305 C 228.777 188.120,228.929 187.629,228.818 187.205 C 228.708 186.784,228.765 186.176,228.945 185.855 C 229.299 185.221,227.612 184.163,226.924 184.588 C 226.725 184.711,226.563 184.626,226.563 184.398 C 226.563 184.171,225.947 183.984,225.195 183.984 C 224.443 183.984,223.828 183.829,223.828 183.640 C 223.828 183.451,222.996 183.086,221.978 182.830 C 220.960 182.574,219.949 182.226,219.732 182.056 C 219.514 181.887,218.810 181.622,218.168 181.468 C 217.526 181.314,216.910 181.069,216.801 180.923 C 216.480 180.496,212.664 179.248,212.068 179.376 C 211.753 179.443,211.546 179.206,211.577 178.813 C 211.606 178.439,211.475 178.230,211.284 178.348 C 211.093 178.465,210.938 178.392,210.938 178.185 C 210.938 177.977,210.606 177.894,210.202 178.000 C 209.793 178.107,208.733 177.730,207.816 177.150 C 206.726 176.462,205.862 176.185,205.272 176.333 C 204.682 176.481,204.302 176.359,204.155 175.974 C 204.031 175.653,203.668 175.391,203.348 175.391 C 203.027 175.391,202.381 174.995,201.911 174.512 C 201.441 174.028,201.181 173.853,201.333 174.121 C 201.648 174.680,201.122 174.780,200.566 174.267 C 200.362 174.078,199.272 173.625,198.145 173.259 C 197.017 172.893,196.094 172.437,196.094 172.246 C 196.094 172.056,195.801 172.012,195.444 172.149 C 194.969 172.331,194.881 172.257,195.117 171.875 C 195.356 171.489,195.264 171.419,194.768 171.610 C 194.389 171.755,193.418 171.522,192.542 171.075 C 191.688 170.640,190.819 170.388,190.612 170.516 C 190.404 170.644,190.234 170.596,190.234 170.410 C 190.234 170.033,185.628 168.359,184.591 168.359 C 184.229 168.359,183.373 167.943,182.689 167.434 C 182.005 166.925,180.955 166.393,180.355 166.251 C 179.716 166.099,179.373 165.819,179.525 165.572 C 179.699 165.291,179.493 165.243,178.906 165.430 C 178.312 165.618,178.113 165.570,178.292 165.281 C 178.456 165.015,178.333 164.938,177.969 165.078 C 177.646 165.202,177.153 165.162,176.874 164.988 C 176.595 164.815,175.987 164.722,175.521 164.782 C 174.963 164.854,174.627 164.651,174.533 164.184 C 174.397 163.505,174.380 163.506,174.110 164.192 M110.938 173.024 C 110.938 173.485,110.176 173.978,109.896 173.698 C 109.616 173.418,110.109 172.656,110.570 172.656 C 110.772 172.656,110.938 172.822,110.938 173.024 M100.773 211.053 C 101.173 210.948,101.681 211.256,102.057 211.830 C 102.814 212.984,105.953 214.681,108.041 215.066 C 109.584 215.350,110.139 215.786,110.150 216.722 C 110.154 217.021,109.954 217.117,109.668 216.953 C 109.384 216.789,109.316 216.821,109.505 217.027 C 109.684 217.223,109.948 217.406,110.091 217.435 C 111.195 217.658,112.067 218.111,111.903 218.377 C 111.795 218.552,111.912 218.823,112.163 218.979 C 112.467 219.167,112.515 219.091,112.307 218.753 C 111.796 217.927,114.153 218.664,114.844 219.546 C 115.244 220.058,115.708 220.222,116.309 220.063 C 116.950 219.894,117.188 219.999,117.188 220.453 C 117.188 221.332,119.070 222.460,120.319 222.329 C 121.176 222.239,121.464 222.445,121.878 223.444 C 122.249 224.340,122.579 224.618,123.107 224.481 C 123.553 224.364,123.828 224.499,123.828 224.836 C 123.828 225.135,124.450 225.640,125.209 225.957 C 125.968 226.274,126.874 226.818,127.220 227.165 C 127.567 227.511,128.176 227.710,128.574 227.606 C 128.992 227.497,129.297 227.622,129.297 227.904 C 129.297 228.171,129.746 228.595,130.295 228.845 C 130.845 229.095,131.202 229.450,131.089 229.633 C 130.976 229.816,131.273 229.899,131.750 229.818 C 132.716 229.653,134.531 230.472,134.395 231.011 C 134.299 231.395,135.132 232.019,135.742 232.019 C 135.957 232.019,135.869 231.849,135.547 231.641 C 135.046 231.317,135.060 231.261,135.645 231.256 C 136.070 231.252,136.328 231.545,136.328 232.031 C 136.328 232.465,136.589 232.813,136.914 232.813 C 137.236 232.813,137.500 233.041,137.500 233.320 C 137.500 233.670,137.924 233.778,138.867 233.668 C 139.914 233.546,140.234 233.651,140.234 234.118 C 140.234 234.453,140.542 234.906,140.918 235.125 C 141.294 235.344,141.426 235.531,141.211 235.541 C 140.996 235.551,141.073 235.719,141.381 235.914 C 142.360 236.533,140.001 238.260,138.588 237.959 C 138.435 237.927,138.398 238.130,138.506 238.412 C 138.617 238.701,138.271 239.120,137.710 239.375 C 137.125 239.642,136.719 240.150,136.719 240.617 C 136.719 241.051,136.543 241.406,136.328 241.406 C 135.844 241.406,135.844 241.327,136.330 239.967 C 136.697 238.941,136.684 238.918,136.135 239.625 C 135.812 240.042,135.547 240.509,135.547 240.661 C 135.547 241.087,133.167 241.821,132.707 241.537 C 132.483 241.398,132.417 241.473,132.560 241.705 C 132.905 242.263,131.774 243.359,130.855 243.359 C 130.453 243.359,130.022 243.525,129.897 243.727 C 129.772 243.929,128.863 244.497,127.878 244.990 C 126.892 245.482,125.779 246.275,125.403 246.753 C 125.027 247.230,124.240 247.708,123.654 247.814 C 123.068 247.920,122.348 248.207,122.054 248.451 C 121.759 248.696,121.308 248.765,121.051 248.606 C 120.779 248.438,120.684 248.482,120.826 248.710 C 121.186 249.293,120.015 250.701,119.636 250.141 C 119.416 249.815,119.208 249.833,118.859 250.210 C 118.484 250.614,118.484 250.771,118.859 250.944 C 119.121 251.065,118.984 251.082,118.555 250.982 C 117.595 250.757,116.507 251.337,117.146 251.732 C 117.981 252.248,117.563 252.539,116.027 252.509 C 114.209 252.473,113.813 252.666,113.619 253.678 C 113.525 254.174,113.081 254.475,112.305 254.570 C 111.660 254.649,110.807 255.101,110.410 255.574 C 110.012 256.047,109.484 256.454,109.238 256.478 C 108.116 256.587,107.882 256.684,107.091 257.370 C 106.628 257.771,106.250 258.269,106.250 258.477 C 106.250 258.854,105.934 258.946,104.102 259.098 C 103.564 259.143,103.125 259.322,103.125 259.496 C 103.125 259.670,102.945 259.700,102.725 259.564 C 102.505 259.428,102.373 259.535,102.432 259.802 C 102.841 261.652,98.105 260.720,95.981 258.532 C 95.597 258.136,95.018 257.813,94.695 257.813 C 94.372 257.813,93.731 257.461,93.269 257.031 C 92.808 256.602,92.126 256.250,91.753 256.250 C 91.380 256.250,90.553 255.811,89.915 255.273 C 89.277 254.736,88.514 254.297,88.220 254.297 C 87.926 254.297,87.512 253.901,87.300 253.418 C 87.088 252.935,86.650 252.530,86.328 252.518 C 85.130 252.476,83.644 251.865,83.439 251.332 C 83.323 251.029,83.039 250.781,82.808 250.781 C 82.578 250.781,82.026 250.443,81.581 250.029 C 81.137 249.615,80.547 249.363,80.270 249.469 C 79.993 249.576,79.650 249.475,79.509 249.245 C 79.367 249.016,78.910 248.828,78.493 248.828 C 78.076 248.828,77.734 248.673,77.734 248.483 C 77.734 248.293,77.383 248.046,76.953 247.934 C 76.523 247.821,76.172 247.482,76.172 247.180 C 76.172 246.878,75.557 246.389,74.805 246.094 C 74.053 245.799,73.438 245.427,73.438 245.267 C 73.438 245.107,73.042 244.920,72.559 244.851 C 72.005 244.773,71.718 244.493,71.782 244.096 C 71.859 243.625,71.649 243.511,70.949 243.645 C 70.435 243.743,69.899 243.639,69.760 243.413 C 69.620 243.188,69.248 243.102,68.933 243.223 C 68.547 243.371,68.359 243.188,68.359 242.662 C 68.359 241.841,65.543 240.388,64.818 240.836 C 64.617 240.960,64.453 240.688,64.453 240.231 C 64.453 239.594,64.281 239.455,63.713 239.635 C 63.166 239.809,62.988 239.689,63.029 239.173 C 63.068 238.696,62.821 238.485,62.246 238.503 C 61.706 238.521,61.477 238.347,61.605 238.015 C 61.736 237.672,61.471 237.500,60.810 237.500 C 60.163 237.500,59.733 237.230,59.571 236.722 C 59.275 235.787,59.655 235.042,60.244 235.406 C 60.497 235.562,60.555 235.486,60.388 235.216 C 60.219 234.943,60.488 234.620,61.068 234.400 C 61.596 234.199,62.091 233.844,62.169 233.611 C 62.247 233.377,62.865 233.146,63.544 233.097 C 64.222 233.048,64.748 232.842,64.713 232.639 C 64.677 232.436,65.176 232.149,65.820 232.002 C 66.465 231.854,66.837 231.712,66.647 231.687 C 66.183 231.625,68.171 230.078,68.714 230.078 C 68.949 230.078,69.141 229.921,69.141 229.730 C 69.141 229.395,70.992 228.715,71.568 228.837 C 71.721 228.870,71.747 228.635,71.624 228.316 C 71.469 227.912,71.658 227.734,72.241 227.734 C 72.703 227.734,73.053 227.515,73.018 227.246 C 72.857 226.006,73.035 225.675,73.608 226.151 C 74.008 226.483,74.386 226.501,74.924 226.213 C 75.339 225.991,75.790 225.920,75.925 226.055 C 76.149 226.280,76.326 225.605,76.223 224.916 C 76.200 224.763,76.473 224.750,76.830 224.887 C 77.310 225.071,77.417 224.974,77.242 224.516 C 77.042 223.996,77.189 223.950,78.158 224.228 C 78.793 224.410,79.225 224.418,79.118 224.246 C 78.818 223.759,80.076 222.826,82.319 221.872 C 83.444 221.394,84.276 220.859,84.169 220.685 C 84.061 220.511,84.371 220.312,84.857 220.243 C 85.450 220.159,85.704 219.891,85.627 219.434 C 85.497 218.657,86.173 218.493,86.434 219.238 C 86.559 219.596,86.811 219.544,87.376 219.043 C 87.800 218.667,88.353 218.359,88.605 218.359 C 89.112 218.359,89.229 217.736,88.770 217.479 C 88.608 217.389,88.709 217.374,88.993 217.445 C 89.610 217.601,90.915 216.968,91.992 215.990 C 92.422 215.601,92.906 215.273,93.068 215.262 C 93.792 215.215,96.094 214.068,96.094 213.755 C 96.094 213.563,96.536 213.205,97.076 212.959 C 97.616 212.713,98.257 212.075,98.500 211.542 C 98.819 210.841,99.104 210.663,99.527 210.899 C 99.848 211.079,100.409 211.148,100.773 211.053 M304.715 211.897 C 304.915 211.774,305.078 212.045,305.078 212.500 C 305.078 212.967,305.253 213.219,305.479 213.079 C 305.931 212.800,309.474 215.005,309.129 215.351 C 309.007 215.472,309.291 215.472,309.760 215.349 C 310.403 215.181,310.485 215.045,310.092 214.796 C 309.722 214.561,309.708 214.463,310.045 214.459 C 310.306 214.456,310.714 214.816,310.951 215.260 C 311.318 215.945,311.477 215.989,312.014 215.553 C 312.561 215.109,312.610 215.136,312.378 215.754 C 312.223 216.167,312.357 216.824,312.695 217.306 C 313.018 217.766,313.281 218.023,313.281 217.878 C 313.281 217.732,314.003 217.867,314.885 218.179 C 315.768 218.490,316.644 218.649,316.834 218.532 C 317.024 218.415,317.074 218.592,316.945 218.926 C 316.775 219.371,317.035 219.598,317.915 219.774 C 318.576 219.907,319.217 220.328,319.338 220.711 C 319.550 221.377,321.175 222.084,322.139 221.928 C 322.391 221.888,322.709 222.035,322.845 222.255 C 322.981 222.476,323.446 222.656,323.878 222.656 C 324.497 222.656,324.607 222.829,324.402 223.476 C 324.182 224.169,324.265 224.257,324.943 224.042 C 325.591 223.836,325.716 223.935,325.596 224.558 C 325.457 225.281,326.305 226.007,327.084 225.832 C 327.264 225.792,327.988 226.116,328.693 226.551 C 329.398 226.987,330.232 227.344,330.547 227.344 C 330.861 227.344,331.346 227.769,331.624 228.289 C 331.902 228.809,332.350 229.150,332.619 229.047 C 332.887 228.944,333.679 229.207,334.378 229.632 C 335.077 230.057,335.934 230.297,336.281 230.166 C 336.822 229.961,336.815 230.027,336.230 230.616 C 335.370 231.484,335.373 231.613,336.246 231.385 C 336.642 231.281,337.261 231.551,337.674 232.007 C 338.074 232.450,338.649 232.813,338.951 232.813 C 339.252 232.813,339.409 232.959,339.298 233.138 C 339.187 233.317,339.309 233.482,339.568 233.504 C 341.070 233.635,341.743 233.778,341.586 233.935 C 341.489 234.032,341.936 234.432,342.580 234.824 C 344.505 235.995,343.976 237.465,341.736 237.168 C 341.596 237.149,341.381 237.392,341.260 237.708 C 341.139 238.023,341.240 238.281,341.484 238.281 C 341.728 238.281,341.814 238.394,341.676 238.532 C 341.538 238.670,341.153 238.558,340.821 238.282 C 340.316 237.863,340.254 237.879,340.447 238.382 C 340.720 239.091,340.281 239.426,338.930 239.537 C 338.389 239.582,338.051 239.787,338.178 239.993 C 338.314 240.212,338.100 240.259,337.662 240.104 C 336.937 239.850,336.937 239.860,337.672 240.429 C 338.396 240.989,338.376 241.016,337.249 241.016 C 336.466 241.016,335.685 241.398,334.932 242.151 C 334.001 243.083,333.656 243.214,333.012 242.884 C 332.367 242.554,332.314 242.575,332.715 242.999 C 333.499 243.829,333.284 244.137,332.087 243.898 C 331.281 243.737,330.906 243.848,330.733 244.298 C 330.601 244.642,330.050 244.922,329.504 244.922 C 328.857 244.922,328.516 245.138,328.516 245.550 C 328.516 245.945,328.300 246.095,327.934 245.954 C 327.613 245.831,327.395 245.929,327.446 246.174 C 327.497 246.417,327.100 246.847,326.563 247.130 C 326.025 247.413,325.728 247.647,325.902 247.650 C 326.076 247.654,326.093 247.859,325.940 248.106 C 325.747 248.418,325.500 248.335,325.136 247.836 C 324.636 247.152,324.609 247.151,324.609 247.819 C 324.609 248.283,324.410 248.445,324.023 248.296 C 323.701 248.173,323.438 248.252,323.438 248.473 C 323.438 248.694,323.289 248.782,323.107 248.670 C 322.925 248.557,322.277 248.986,321.666 249.623 C 321.056 250.260,320.316 250.781,320.021 250.781 C 319.726 250.781,319.594 250.957,319.727 251.172 C 319.859 251.387,319.612 251.563,319.176 251.563 C 318.596 251.563,318.451 251.737,318.635 252.216 C 318.834 252.737,318.732 252.810,318.134 252.578 C 316.924 252.107,316.596 252.118,316.695 252.625 C 316.747 252.887,316.434 253.292,316.001 253.524 C 315.567 253.756,315.294 254.077,315.393 254.237 C 315.492 254.398,315.396 254.785,315.179 255.097 C 314.902 255.494,314.728 255.528,314.597 255.209 C 314.471 254.902,314.046 254.859,313.289 255.076 C 312.673 255.253,312.052 255.282,311.911 255.140 C 311.769 254.999,311.689 255.059,311.732 255.273 C 311.898 256.092,311.704 256.678,311.342 256.454 C 311.135 256.326,310.608 256.579,310.170 257.017 C 309.733 257.455,309.161 257.813,308.899 257.813 C 308.637 257.813,308.034 258.265,307.558 258.819 C 307.074 259.383,306.124 259.912,305.398 260.023 C 304.685 260.132,303.935 260.382,303.730 260.579 C 303.187 261.104,302.245 261.023,302.580 260.480 C 302.772 260.170,302.647 260.106,302.190 260.281 C 301.739 260.455,301.194 260.189,300.530 259.473 C 299.555 258.421,299.533 258.417,298.944 259.183 C 298.370 259.931,298.355 259.919,298.535 258.877 C 298.639 258.281,298.544 257.683,298.325 257.548 C 298.082 257.398,298.047 257.497,298.236 257.803 C 298.444 258.139,298.368 258.240,298.004 258.107 C 297.705 257.999,297.509 257.699,297.568 257.442 C 297.627 257.184,297.495 257.085,297.275 257.221 C 297.055 257.357,296.875 257.287,296.875 257.067 C 296.875 256.846,296.582 256.777,296.225 256.915 C 295.753 257.096,295.663 257.022,295.895 256.647 C 296.096 256.321,296.063 256.223,295.805 256.382 C 295.202 256.755,292.478 255.512,292.689 254.961 C 292.798 254.679,292.466 254.468,291.856 254.430 C 291.299 254.397,290.486 253.936,290.050 253.406 C 289.008 252.141,287.502 251.334,287.494 252.037 C 287.490 252.372,287.393 252.399,287.201 252.119 C 286.952 251.754,285.588 250.953,283.594 250.000 C 283.271 249.846,283.000 249.475,282.990 249.176 C 282.980 248.877,282.742 248.683,282.461 248.744 C 282.179 248.805,281.712 248.658,281.421 248.418 C 281.131 248.177,280.710 248.093,280.486 248.232 C 280.252 248.376,280.078 248.131,280.078 247.656 C 280.078 247.170,279.906 246.935,279.662 247.086 C 279.432 247.228,278.999 247.019,278.697 246.621 C 278.396 246.224,278.144 246.039,278.137 246.210 C 278.131 246.382,277.328 245.973,276.354 245.303 C 275.379 244.633,274.113 244.034,273.540 243.973 C 272.967 243.912,272.431 243.661,272.349 243.416 C 272.268 243.170,271.939 242.969,271.619 242.969 C 270.840 242.969,269.811 241.902,270.115 241.409 C 270.255 241.183,269.923 241.016,269.336 241.016 C 268.673 241.016,268.410 240.860,268.587 240.573 C 268.777 240.266,268.485 240.185,267.638 240.309 C 266.700 240.447,266.363 240.323,266.189 239.775 C 266.065 239.383,265.645 239.063,265.256 239.063 C 264.867 239.063,264.315 238.781,264.029 238.436 C 263.743 238.091,263.106 237.656,262.614 237.469 C 260.868 236.805,262.476 233.408,264.364 233.772 C 264.905 233.876,265.385 233.618,265.784 233.009 C 266.116 232.502,266.787 232.027,267.276 231.953 C 267.764 231.878,268.123 231.611,268.073 231.358 C 268.014 231.062,268.400 230.951,269.156 231.047 C 270.064 231.162,270.471 230.980,270.954 230.244 C 271.297 229.721,272.367 228.943,273.332 228.516 C 274.570 227.968,275.020 227.568,274.861 227.155 C 274.705 226.749,274.961 226.502,275.697 226.348 C 276.281 226.225,277.065 225.958,277.441 225.754 C 277.885 225.514,278.125 225.522,278.125 225.778 C 278.125 225.995,278.311 226.172,278.539 226.172 C 278.766 226.172,278.849 226.005,278.723 225.801 C 278.597 225.597,278.850 225.239,279.286 225.006 C 279.722 224.773,280.092 224.280,280.109 223.912 C 280.128 223.501,280.216 223.432,280.338 223.733 C 280.621 224.436,281.250 223.926,281.250 222.994 C 281.250 222.307,281.471 222.220,282.973 222.313 C 284.798 222.425,286.118 221.736,285.777 220.848 C 285.669 220.567,285.749 220.234,285.955 220.107 C 286.160 219.980,286.328 220.060,286.328 220.285 C 286.328 220.510,286.768 220.658,287.305 220.614 C 287.842 220.569,288.281 220.335,288.281 220.093 C 288.281 219.376,289.729 218.280,290.483 218.425 C 290.867 218.499,291.605 218.166,292.124 217.686 C 292.643 217.205,293.216 216.904,293.398 217.016 C 293.763 217.242,295.187 215.754,295.001 215.343 C 294.896 215.112,297.933 214.103,299.099 213.981 C 299.356 213.954,299.532 213.742,299.490 213.509 C 299.448 213.276,299.715 213.109,300.082 213.138 C 300.450 213.166,300.714 212.990,300.668 212.747 C 300.623 212.504,300.850 212.305,301.172 212.305 C 301.494 212.305,301.990 212.085,302.274 211.816 C 302.558 211.548,303.041 211.328,303.348 211.328 C 303.655 211.328,303.930 211.108,303.959 210.840 C 303.989 210.571,304.089 210.750,304.183 211.236 C 304.276 211.723,304.516 212.020,304.715 211.897 M349.842 270.345 C 349.885 297.676,350.130 294.901,347.524 296.557 C 346.415 297.261,345.453 297.963,345.385 298.116 C 345.317 298.268,345.023 298.302,344.732 298.190 C 344.440 298.078,343.836 298.352,343.390 298.798 C 342.943 299.244,342.314 299.609,341.992 299.609 C 341.480 299.609,341.251 300.035,341.341 300.821 C 341.356 300.950,340.911 300.969,340.352 300.862 C 339.653 300.728,339.423 300.807,339.614 301.116 C 339.913 301.599,338.086 302.483,337.343 302.214 C 336.689 301.977,335.547 302.690,335.547 303.334 C 335.547 303.649,335.371 303.906,335.156 303.906 C 334.941 303.906,334.766 304.129,334.766 304.401 C 334.766 304.719,334.276 304.873,333.400 304.832 C 332.649 304.797,332.124 304.913,332.234 305.090 C 332.344 305.267,332.069 305.528,331.624 305.669 C 331.179 305.811,330.653 306.351,330.456 306.869 C 330.247 307.420,329.781 307.813,329.338 307.813 C 328.921 307.813,328.273 307.930,327.898 308.074 C 327.383 308.272,327.294 308.200,327.538 307.781 C 327.729 307.452,327.715 307.359,327.504 307.552 C 327.147 307.879,327.092 308.061,327.002 309.222 C 326.964 309.705,326.635 309.814,325.586 309.691 C 324.729 309.591,324.219 309.698,324.219 309.977 C 324.219 310.222,323.362 310.889,322.316 311.458 C 321.269 312.028,320.193 312.759,319.924 313.083 C 319.656 313.407,319.124 313.672,318.744 313.672 C 318.364 313.672,317.951 313.936,317.827 314.258 C 317.704 314.580,317.246 314.844,316.809 314.844 C 316.364 314.844,316.016 315.101,316.016 315.430 C 316.016 315.761,315.666 316.016,315.211 316.016 C 314.769 316.016,314.508 316.179,314.632 316.379 C 314.980 316.942,314.159 317.265,313.387 316.868 C 312.571 316.448,311.724 316.674,311.706 317.318 C 311.687 318.037,309.821 319.211,309.074 318.974 C 307.966 318.622,308.035 270.732,309.143 271.022 C 309.599 271.141,309.790 271.058,309.636 270.809 C 309.497 270.585,309.645 270.184,309.965 269.918 C 310.285 269.653,310.547 269.551,310.547 269.692 C 310.547 269.834,310.907 269.757,311.347 269.521 C 311.847 269.253,312.068 268.846,311.938 268.433 C 311.769 267.902,311.987 267.773,313.053 267.773 C 313.801 267.773,314.297 267.944,314.192 268.164 C 314.089 268.379,314.255 268.250,314.560 267.877 C 314.866 267.505,315.259 267.329,315.433 267.487 C 315.608 267.644,315.630 267.564,315.484 267.308 C 315.337 267.053,315.591 266.495,316.049 266.069 C 316.506 265.643,316.763 265.105,316.620 264.874 C 316.477 264.642,316.546 264.453,316.774 264.453 C 317.001 264.453,317.208 264.761,317.233 265.137 C 317.272 265.729,317.301 265.735,317.448 265.182 C 317.614 264.557,319.702 263.881,320.309 264.255 C 320.477 264.360,320.591 264.139,320.561 263.765 C 320.532 263.392,320.739 263.134,321.022 263.192 C 321.304 263.250,322.050 262.932,322.679 262.484 C 323.308 262.036,323.992 261.774,324.199 261.902 C 324.406 262.030,324.868 261.687,325.227 261.139 C 325.585 260.592,326.077 260.168,326.318 260.197 C 327.188 260.300,327.860 260.151,327.618 259.910 C 327.237 259.529,328.112 258.149,328.560 258.426 C 328.777 258.560,329.262 258.393,329.637 258.054 C 330.011 257.715,330.700 257.511,331.166 257.601 C 331.633 257.691,331.975 257.599,331.926 257.396 C 331.876 257.193,332.442 256.638,333.182 256.161 C 333.923 255.685,334.379 255.537,334.196 255.833 C 333.971 256.197,334.009 256.281,334.315 256.092 C 334.563 255.939,334.766 255.563,334.766 255.258 C 334.766 254.952,335.205 254.592,335.742 254.457 C 336.279 254.322,336.719 253.962,336.719 253.656 C 336.719 253.351,337.026 253.003,337.402 252.884 C 339.118 252.340,341.007 251.330,341.011 250.954 C 341.014 250.727,341.411 250.366,341.895 250.153 C 342.378 249.939,342.554 249.811,342.285 249.870 C 341.576 250.023,341.685 249.345,342.415 249.065 C 343.442 248.671,344.529 248.798,344.562 249.316 C 344.587 249.704,344.634 249.704,344.791 249.314 C 344.900 249.044,345.161 248.930,345.372 249.060 C 345.583 249.191,345.852 248.928,345.970 248.477 C 346.164 247.735,347.064 247.405,348.242 247.643 C 348.457 247.686,348.512 247.600,348.363 247.452 C 348.017 247.106,348.899 246.089,349.414 246.240 C 349.668 246.315,349.818 254.721,349.842 270.345 M54.909 247.307 C 55.095 247.609,55.277 247.579,55.512 247.210 C 55.786 246.777,55.850 246.788,55.859 247.266 C 55.870 247.786,55.917 247.786,56.282 247.266 C 56.603 246.807,56.638 246.871,56.445 247.559 C 56.194 248.451,56.380 248.549,58.301 248.542 C 58.677 248.540,58.984 248.692,58.984 248.879 C 58.984 249.066,59.223 249.219,59.514 249.219 C 59.805 249.219,60.498 249.769,61.055 250.441 C 61.721 251.244,62.282 251.580,62.695 251.422 C 63.040 251.289,63.222 251.342,63.100 251.540 C 62.784 252.051,63.710 252.535,64.746 252.401 C 65.229 252.339,65.625 252.456,65.625 252.661 C 65.625 252.866,66.021 253.158,66.504 253.310 L 67.383 253.585 66.406 253.861 C 65.319 254.169,66.075 254.688,67.610 254.688 C 68.022 254.688,68.359 254.831,68.359 255.006 C 68.359 255.181,68.984 255.622,69.747 255.986 C 70.661 256.422,71.036 256.813,70.844 257.133 C 70.651 257.455,70.774 257.438,71.214 257.081 C 71.628 256.745,71.875 256.705,71.875 256.973 C 71.875 257.588,73.986 258.594,74.906 258.417 C 75.334 258.334,75.678 258.472,75.671 258.723 C 75.637 259.943,75.833 260.483,76.387 260.696 C 76.735 260.829,76.892 260.764,76.755 260.542 C 76.446 260.043,77.400 260.048,78.730 260.554 C 79.553 260.867,79.738 261.151,79.597 261.886 C 79.482 262.489,79.579 262.758,79.872 262.646 C 80.121 262.550,80.756 262.874,81.284 263.365 C 81.910 263.948,82.612 264.215,83.309 264.134 C 84.095 264.043,84.375 264.183,84.375 264.665 C 84.375 265.183,84.660 265.287,85.742 265.160 C 86.825 265.034,87.109 265.137,87.109 265.656 C 87.109 266.016,87.371 266.528,87.691 266.793 C 88.011 267.059,88.204 267.388,88.120 267.525 C 88.036 267.662,88.521 267.814,89.198 267.863 C 89.874 267.912,90.604 268.190,90.820 268.481 C 91.035 268.772,91.725 269.259,92.354 269.564 C 92.983 269.868,93.577 270.361,93.674 270.660 C 93.792 271.021,93.684 271.099,93.350 270.892 C 93.028 270.694,92.944 270.738,93.116 271.016 C 93.264 271.255,93.640 271.352,93.953 271.232 C 94.447 271.042,94.528 273.946,94.563 293.222 C 94.585 305.436,94.645 316.089,94.696 316.895 C 94.747 317.700,94.633 318.359,94.442 318.359 C 94.251 318.359,94.203 318.535,94.336 318.750 C 94.537 319.076,93.762 319.247,92.719 319.107 C 92.582 319.089,92.328 319.304,92.155 319.584 C 91.981 319.865,91.703 319.958,91.536 319.792 C 91.370 319.625,91.422 319.366,91.651 319.217 C 92.138 318.901,92.217 317.514,91.732 317.814 C 91.553 317.924,91.406 317.852,91.406 317.654 C 91.406 317.455,90.923 317.288,90.332 317.282 C 88.463 317.264,88.281 317.201,88.281 316.577 C 88.281 316.219,87.476 315.612,86.335 315.112 C 85.263 314.641,84.462 314.053,84.553 313.801 C 84.661 313.500,84.326 313.394,83.569 313.490 C 82.662 313.604,82.422 313.484,82.422 312.914 C 82.422 312.029,81.237 311.504,80.799 312.194 C 80.501 312.663,80.265 311.773,80.432 310.811 C 80.463 310.634,80.308 310.600,80.088 310.736 C 79.868 310.872,79.688 310.803,79.688 310.582 C 79.688 310.361,79.437 310.277,79.132 310.394 C 78.812 310.517,78.388 310.258,78.135 309.785 C 77.893 309.333,77.521 309.070,77.307 309.202 C 77.094 309.334,76.671 309.236,76.367 308.984 C 76.064 308.733,75.634 308.639,75.412 308.776 C 75.172 308.924,75.103 308.780,75.242 308.419 C 75.394 308.020,75.251 307.813,74.823 307.813 C 74.431 307.813,74.283 307.633,74.451 307.362 C 74.625 307.081,74.558 307.017,74.276 307.191 C 73.621 307.596,72.175 307.049,72.394 306.480 C 72.604 305.930,71.239 304.942,70.717 305.265 C 70.156 305.612,68.312 304.593,68.520 304.052 C 68.645 303.726,68.493 303.639,68.080 303.797 C 67.627 303.971,67.540 303.894,67.770 303.522 C 67.987 303.170,67.939 303.097,67.620 303.295 C 67.361 303.454,66.856 303.472,66.496 303.334 C 65.961 303.128,65.940 303.023,66.382 302.749 C 66.740 302.528,66.178 302.323,64.711 302.139 C 63.495 301.987,62.500 301.708,62.500 301.517 C 62.500 301.327,62.303 301.216,62.063 301.270 C 61.822 301.323,61.396 300.752,61.116 300.000 C 60.836 299.248,60.593 298.785,60.577 298.971 C 60.560 299.157,60.102 299.017,59.559 298.662 C 59.016 298.306,58.401 298.120,58.192 298.249 C 57.859 298.455,57.654 297.969,57.753 297.208 C 57.771 297.069,57.440 297.045,57.018 297.156 C 56.560 297.276,56.250 297.162,56.250 296.873 C 56.250 296.492,56.123 296.494,55.655 296.883 C 55.327 297.155,54.932 297.250,54.776 297.094 C 54.621 296.938,54.834 296.562,55.251 296.257 C 56.001 295.709,56.001 295.703,55.250 295.691 C 53.015 295.654,53.112 296.781,53.115 271.071 C 53.118 247.446,53.146 246.908,54.371 246.881 C 54.520 246.878,54.762 247.070,54.909 247.307 M146.406 247.344 C 146.771 247.708,146.875 247.708,146.875 247.344 C 146.875 247.086,147.070 246.875,147.307 246.875 C 147.545 246.875,147.645 247.121,147.530 247.423 C 147.414 247.724,147.419 248.070,147.542 248.193 C 148.231 248.882,147.864 296.094,147.169 296.094 C 146.957 296.094,146.883 295.698,147.005 295.215 L 147.225 294.336 146.513 295.198 C 146.121 295.672,145.646 295.936,145.459 295.784 C 145.271 295.632,145.249 295.669,145.411 295.867 C 145.826 296.373,144.572 297.647,143.909 297.393 C 143.582 297.268,143.359 297.428,143.359 297.787 C 143.359 298.176,143.088 298.340,142.603 298.247 C 142.187 298.167,141.629 298.364,141.362 298.686 C 140.692 299.494,138.724 300.469,138.297 300.205 C 137.570 299.756,137.408 300.920,138.124 301.445 C 138.799 301.940,138.729 301.975,137.371 301.827 C 136.240 301.703,135.698 301.852,135.154 302.436 C 134.759 302.860,134.246 303.091,134.014 302.948 C 133.783 302.805,133.594 302.885,133.594 303.125 C 133.594 303.365,133.391 303.436,133.143 303.283 C 132.875 303.118,132.797 303.175,132.951 303.424 C 133.094 303.654,132.973 304.080,132.684 304.370 C 132.394 304.660,132.055 305.157,131.930 305.476 C 131.734 305.975,131.698 305.972,131.671 305.455 C 131.655 305.125,131.302 304.855,130.888 304.855 C 130.474 304.855,130.201 304.962,130.282 305.092 C 130.465 305.389,129.034 306.641,128.511 306.641 C 128.299 306.641,128.125 306.794,128.125 306.981 C 128.125 307.169,127.438 307.432,126.599 307.566 C 125.314 307.772,125.105 307.934,125.277 308.593 C 125.445 309.233,125.278 309.386,124.362 309.434 C 123.746 309.467,123.015 309.513,122.738 309.536 C 122.460 309.558,122.067 309.839,121.865 310.160 C 121.662 310.480,121.492 310.566,121.488 310.352 C 121.483 310.137,121.160 310.446,120.769 311.038 C 120.378 311.631,119.947 312.005,119.812 311.869 C 119.676 311.733,119.250 311.760,118.865 311.928 C 118.479 312.096,118.019 312.201,117.842 312.162 C 117.664 312.122,117.632 312.444,117.769 312.876 C 117.987 313.563,117.869 313.645,116.831 313.524 C 116.178 313.448,115.718 313.506,115.809 313.653 C 115.899 313.800,115.598 314.172,115.138 314.480 C 114.679 314.787,113.896 315.428,113.399 315.903 C 112.901 316.378,111.748 316.981,110.837 317.241 C 109.925 317.502,108.968 317.875,108.709 318.071 C 108.449 318.266,108.050 318.311,107.820 318.169 C 107.590 318.027,107.451 318.116,107.510 318.367 C 107.674 319.063,106.363 319.800,105.858 319.296 C 104.946 318.384,105.314 272.273,106.239 271.411 C 106.680 271.000,107.219 270.773,107.437 270.908 C 107.654 271.042,107.800 271.007,107.760 270.830 C 107.506 269.689,108.732 268.374,110.059 268.365 C 110.542 268.362,110.938 268.163,110.938 267.923 C 110.938 267.679,111.282 267.577,111.719 267.691 C 112.148 267.804,112.500 267.726,112.500 267.519 C 112.500 267.311,112.676 267.250,112.891 267.383 C 113.105 267.516,113.281 267.428,113.281 267.188 C 113.281 266.947,113.434 266.845,113.621 266.961 C 113.807 267.076,113.939 266.618,113.914 265.944 C 113.886 265.204,114.085 264.644,114.418 264.532 C 114.797 264.404,114.892 264.546,114.723 264.986 C 114.421 265.773,115.145 265.824,115.985 265.075 C 116.324 264.773,117.041 264.465,117.578 264.392 C 118.115 264.318,118.942 263.862,119.415 263.379 C 119.888 262.896,120.441 262.500,120.643 262.500 C 120.845 262.500,121.119 262.217,121.252 261.870 C 121.448 261.360,121.604 261.332,122.075 261.723 C 122.566 262.130,122.656 262.038,122.656 261.133 C 122.656 260.341,122.784 260.156,123.145 260.425 C 123.413 260.626,123.809 260.775,124.023 260.756 C 124.518 260.713,126.078 259.793,125.684 259.778 C 125.172 259.757,126.930 258.203,127.465 258.203 C 127.747 258.203,128.402 257.808,128.921 257.324 C 129.440 256.841,129.869 256.515,129.874 256.600 C 129.895 256.963,131.641 256.160,131.641 255.787 C 131.641 255.562,131.986 255.468,132.409 255.578 C 132.863 255.697,133.142 255.597,133.092 255.331 C 133.046 255.085,133.315 254.907,133.691 254.937 C 134.067 254.967,134.375 254.825,134.375 254.621 C 134.375 254.417,134.549 254.358,134.761 254.489 C 134.974 254.621,135.054 254.484,134.939 254.185 C 134.804 253.834,135.349 253.315,136.483 252.713 C 137.821 252.003,138.138 251.665,137.820 251.282 C 137.340 250.704,137.938 250.594,138.501 251.158 C 139.035 251.691,141.597 250.740,143.040 249.474 C 143.688 248.905,144.372 248.534,144.559 248.650 C 144.746 248.765,145.011 248.413,145.148 247.868 C 145.425 246.766,145.710 246.647,146.406 247.344 M258.139 248.078 C 258.211 248.278,258.431 248.343,258.627 248.222 C 258.824 248.100,258.984 248.187,258.984 248.414 C 258.984 248.642,259.116 248.793,259.277 248.751 C 259.891 248.589,261.329 249.292,261.109 249.647 C 260.983 249.852,261.024 249.980,261.201 249.932 C 261.732 249.789,263.430 250.442,264.136 251.061 C 264.519 251.398,265.009 251.510,265.307 251.330 C 265.670 251.112,265.653 251.244,265.247 251.780 C 264.932 252.198,264.828 252.409,265.016 252.249 C 265.204 252.090,265.589 252.152,265.871 252.386 C 266.154 252.621,267.049 252.812,267.861 252.812 C 269.647 252.811,270.090 253.038,269.557 253.680 C 269.273 254.023,269.333 254.386,269.762 254.915 C 270.097 255.327,270.259 255.444,270.123 255.176 C 269.661 254.263,270.634 254.683,271.481 255.762 C 271.944 256.353,272.212 256.616,272.076 256.348 C 271.940 256.079,271.996 255.859,272.201 255.859 C 272.405 255.859,272.681 256.143,272.814 256.489 C 273.010 256.999,273.167 257.028,273.637 256.637 C 274.104 256.250,274.221 256.260,274.229 256.690 C 274.234 256.985,274.937 257.549,275.791 257.942 C 276.646 258.337,277.344 258.936,277.344 259.277 C 277.344 259.617,277.446 259.793,277.572 259.668 C 277.697 259.543,278.148 259.789,278.574 260.215 C 279.068 260.708,279.517 260.865,279.811 260.647 C 280.570 260.084,281.455 260.315,281.331 261.044 C 281.248 261.530,281.482 261.719,282.165 261.719 C 282.754 261.719,283.364 262.101,283.775 262.729 C 284.139 263.285,284.530 263.647,284.643 263.534 C 284.756 263.421,285.215 263.669,285.662 264.086 C 286.411 264.784,287.336 265.034,288.574 264.873 C 288.843 264.838,289.063 265.062,289.063 265.371 C 289.063 265.679,289.328 266.034,289.652 266.158 C 289.976 266.283,290.219 266.521,290.192 266.688 C 290.067 267.445,290.277 267.638,290.775 267.225 C 291.191 266.880,291.367 266.913,291.544 267.373 C 291.698 267.775,292.301 267.969,293.395 267.969 C 294.708 267.969,294.935 268.069,294.582 268.493 C 293.988 269.209,294.451 269.566,295.600 269.278 C 296.459 269.062,296.541 269.146,296.421 270.125 C 296.322 270.941,296.468 271.239,297.008 271.319 C 297.404 271.378,297.756 271.483,297.790 271.553 C 298.312 272.625,297.535 318.679,296.997 318.473 C 296.568 318.308,296.450 318.378,296.639 318.684 C 297.120 319.462,295.760 319.198,294.910 318.347 C 294.473 317.911,293.606 317.452,292.982 317.327 C 292.357 317.202,291.735 316.812,291.599 316.460 C 291.379 315.893,291.284 315.909,290.767 316.602 C 290.213 317.342,290.197 317.324,290.461 316.250 C 290.665 315.418,290.615 315.194,290.271 315.407 C 289.996 315.577,289.476 315.320,289.013 314.787 C 288.579 314.287,287.964 313.875,287.646 313.872 C 287.328 313.869,286.769 313.473,286.405 312.992 C 286.040 312.510,285.248 312.075,284.643 312.025 C 284.039 311.976,283.367 311.721,283.150 311.459 C 282.933 311.198,282.505 311.080,282.198 311.198 C 281.704 311.387,281.458 310.923,281.594 310.059 C 281.620 309.897,281.509 309.786,281.348 309.812 C 280.495 309.946,280.060 309.719,280.325 309.277 C 280.502 308.983,280.340 309.016,279.916 309.360 C 279.298 309.862,279.158 309.860,278.766 309.346 C 278.008 308.350,275.808 306.969,275.391 307.227 C 275.173 307.361,274.908 307.197,274.802 306.861 C 274.696 306.525,274.524 305.979,274.420 305.647 C 274.280 305.201,274.050 305.141,273.535 305.416 C 272.701 305.863,271.255 304.985,271.683 304.291 C 271.859 304.007,271.695 303.876,271.234 303.934 C 270.276 304.056,269.149 303.582,268.059 302.601 C 267.572 302.163,266.809 301.748,266.364 301.680 C 265.918 301.612,264.771 300.915,263.813 300.130 C 262.855 299.345,261.190 298.295,260.111 297.795 C 258.778 297.177,258.241 296.728,258.435 296.392 C 258.591 296.121,258.580 296.024,258.410 296.178 C 257.962 296.581,256.571 295.742,256.874 295.251 C 257.037 294.987,256.848 294.927,256.351 295.085 C 255.582 295.329,255.572 295.128,255.540 279.600 C 255.523 270.947,255.476 260.329,255.436 256.005 C 255.396 251.681,255.494 247.932,255.654 247.673 C 255.975 247.152,257.920 247.469,258.139 248.078 M141.910 249.609 C 141.714 250.359,141.016 250.725,141.016 250.078 C 141.016 249.806,141.812 248.828,142.034 248.828 C 142.078 248.828,142.022 249.180,141.910 249.609 M84.766 325.586 C 85.102 325.991,85.116 326.172,84.813 326.172 C 84.572 326.172,84.375 326.007,84.375 325.806 C 84.375 325.605,83.804 325.369,83.105 325.283 L 81.836 325.125 83.058 325.063 C 83.735 325.028,84.496 325.261,84.766 325.586 "
       stroke="none"
       fill="#fcfcf4"
       fill-rule="evenodd"
       style="fill:#f2f2f2;fill-opacity:1;stroke:none;stroke-opacity:1" />
  </g>
</svg>
